# 3ds Max Wavefront OBJ Exporter v0.97b - (c)2007 guruware
# File Created: 20.09.2014 14:43:25

mtllib ??5.mtl

#
# object UC109
#

v  0.3405 0.4069 0.3502
v  0.4704 0.4226 0.0165
v  0.3595 0.5270 0.0130
v  0.2571 0.5020 0.2651
v  -0.3303 0.4185 -0.3465
v  -0.2396 0.5240 -0.2496
v  0.0120 0.5291 -0.3527
v  -0.0023 0.4113 -0.4768
v  -0.0086 0.4794 0.3389
v  -0.2296 0.4969 0.1855
v  -0.3280 0.3911 0.3276
v  -0.0058 0.4226 0.4637
v  -0.4876 0.3944 -0.0107
v  -0.2661 0.5246 -0.0317
v  0.1502 0.5125 -0.2920
v  0.2165 0.5097 -0.2987
v  0.2752 0.5045 -0.2654
v  0.3291 0.3829 -0.3336
v  0.0436 0.5815 -0.0288
v  0.0843 0.5476 -0.2097
v  0.1246 0.5607 -0.1130
v  0.2366 0.5333 0.1729
v  0.1474 0.5380 0.1212
v  -0.1525 0.5161 0.1464
v  -0.1820 0.5341 -0.0113
v  0.1917 0.6485 -0.1754
v  0.1563 0.6241 -0.1224
v  0.2287 0.6147 -0.1192
v  0.2660 0.6343 -0.1674
v  0.2495 0.6517 -0.2205
v  0.2007 0.6527 -0.2492
v  0.1455 0.6476 -0.2287
v  0.1235 0.6334 -0.1752
v  0.2434 0.5394 -0.1100
v  0.3082 0.5596 -0.1749
v  0.2937 0.5841 -0.2543
v  0.2145 0.5884 -0.3113
v  0.1282 0.5800 -0.2892
v  0.2841 0.5067 -0.1855
v  0.2195 0.7037 -0.1231
v  0.2238 0.7140 -0.1330
v  0.2111 0.7194 -0.1329
v  0.1778 0.6070 -0.2148
v  -0.2577 0.6092 0.0867
v  -0.1688 0.5913 0.0713
v  -0.2029 0.6002 0.0256
v  -0.2663 0.6010 0.0116
v  -0.3205 0.5967 0.0427
v  -0.3283 0.5880 0.0969
v  -0.2928 0.5886 0.1442
v  -0.2311 0.5789 0.1610
v  -0.1844 0.5860 0.1325
v  -0.1389 0.5190 0.0609
v  -0.3290 0.5228 0.0110
v  -0.3588 0.5099 0.0887
v  -0.3201 0.5014 0.1673
v  -0.3113 0.4804 0.0095
v  -0.3419 0.4632 0.0711
v  -0.2915 0.4541 0.1417
v  0.1309 0.6690 0.3073
v  0.1297 0.6803 0.2976
v  0.1160 0.6797 0.2985
v  0.1352 0.5539 0.2151
v  -0.2289 0.6636 0.1126
v  -0.2246 0.6689 0.0993
v  -0.2374 0.6737 0.0971
v  -0.2682 0.5262 0.0762
v  0.0000 0.4349 0.5300
v  -0.3497 0.4349 0.3852
v  -0.3499 0.3374 0.3499
v  0.0000 0.4349 0.4724
v  -0.3162 0.4349 0.3414
v  -0.5300 0.4349 -0.0000
v  -0.3693 -0.0111 -0.0000
v  -0.2611 -0.0111 0.2611
v  -0.4724 0.4349 -0.0000
v  -0.3748 0.4349 0.3748
v  -0.3340 0.4349 0.3340
v  -0.4627 0.4050 -0.0000
v  -0.3748 0.4349 -0.3748
v  -0.2611 -0.0111 -0.2611
v  -0.3340 0.4349 -0.3340
v  -0.3283 0.4096 -0.3283
v  0.0000 0.4349 -0.5300
v  0.0000 -0.0111 -0.3693
v  0.0000 0.4349 -0.4724
v  0.0000 0.3811 0.4380
v  0.3511 0.4349 -0.3782
v  0.3513 0.3374 -0.3430
v  0.3176 0.4349 -0.3345
v  0.3762 0.4349 -0.3679
v  0.5314 0.4349 0.0069
v  0.4738 0.4349 0.0069
v  0.3354 0.4349 -0.3271
v  0.3287 0.3939 -0.3204
v  0.4641 0.4050 0.0069
v  0.3762 0.4349 0.3817
v  0.2625 -0.0111 0.2680
v  0.3707 -0.0111 0.0069
v  0.3354 0.4349 0.3409
v  0.3297 0.4096 0.3352
v  0.0000 -0.0111 0.3693
v  0.2625 -0.0111 -0.2542
v  0.0882 0.4811 0.3212
v  0.0313 0.4948 0.2686
v  0.0358 0.5194 0.1934
v  0.0696 0.5341 0.1392
v  0.1316 0.6057 0.2488
v  0.0533 0.5826 0.2085
v  0.0620 0.5740 0.2798
v  0.1155 0.5752 0.3166
v  0.1768 0.5848 0.3084
v  0.2041 0.5940 0.2610
v  0.1875 0.6067 0.2057
v  0.1381 0.5981 0.1648
v  0.0840 0.5924 0.1742
v  0.1958 0.4923 0.3334
# 117 vertices

vn 0.4799 0.7396 0.4719
vn 0.6903 0.7232 -0.0215
vn 0.5017 0.8650 -0.0074
vn 0.4773 0.8024 0.3582
vn -0.4538 0.7765 -0.4370
vn -0.3430 0.8955 -0.2836
vn 0.0561 0.8698 -0.4902
vn -0.2437 0.7173 -0.6528
vn -0.0776 0.9300 0.3593
vn -0.3483 0.8854 0.3079
vn -0.3765 0.8653 0.3311
vn -0.0856 0.8835 0.4605
vn -0.5191 0.8522 0.0652
vn -0.3417 0.9396 0.0184
vn 0.2813 0.7247 -0.6290
vn 0.0848 0.8428 -0.5315
vn -0.0108 0.8808 -0.4734
vn 0.3983 0.5553 -0.7300
vn 0.4397 0.5800 -0.6858
vn 0.5863 0.6032 -0.5408
vn 0.3723 0.5393 -0.7554
vn -0.0192 0.9988 0.0453
vn 0.1160 0.9760 -0.1844
vn 0.2160 0.9486 -0.2314
vn 0.1327 0.9845 -0.1150
vn 0.2421 0.9509 0.1927
vn -0.1158 0.9297 0.3495
vn -0.1416 0.9670 0.2121
vn -0.1710 0.9814 0.0876
vn -0.0206 0.9635 0.2669
vn -0.2714 0.6243 0.7325
vn 0.2849 0.5099 0.8117
vn 0.1372 0.9229 0.3597
vn 0.4436 0.8798 -0.1706
vn 0.0098 0.8980 -0.4398
vn -0.4815 0.8392 -0.2528
vn -0.6849 0.7026 0.1933
vn -0.0127 0.1390 0.9902
vn -0.0030 0.1205 0.9927
vn 0.6558 0.2159 0.7235
vn 0.6687 0.2626 0.6957
vn 0.6817 0.3192 0.6583
vn 0.8444 0.5343 -0.0398
vn 0.8704 0.4923 -0.0073
vn 0.8343 0.2632 -0.4845
vn 0.1756 0.3009 -0.9374
vn -0.6328 0.2533 -0.7317
vn -0.8456 0.4686 -0.2557
vn -0.9000 0.2756 0.3377
vn -0.8387 0.3469 0.4199
vn 0.7010 -0.4338 0.5660
vn 0.9419 -0.2925 -0.1653
vn 0.9128 -0.3982 -0.0904
vn 0.9454 -0.2722 -0.1790
vn 0.4933 0.0064 -0.8698
vn 0.5413 -0.0620 -0.8386
vn -0.1051 -0.1599 -0.9815
vn -0.1801 -0.0956 -0.9790
vn 0.2677 0.6075 0.7478
vn 0.8430 0.5354 -0.0517
vn -0.4620 0.8830 0.0826
vn -0.2854 -0.7452 -0.6027
vn -0.8463 -0.1261 0.5175
vn 0.9205 -0.3908 -0.0060
vn -0.8053 -0.2397 -0.5422
vn -0.0200 0.9924 0.1217
vn 0.6819 0.7300 -0.0466
vn 0.3708 0.8139 -0.4472
vn -0.1311 0.7921 -0.5961
vn -0.2041 0.9789 0.0120
vn -0.7069 0.6705 0.2253
vn -0.3517 0.7008 0.6207
vn 0.1061 0.6188 0.7784
vn 0.5079 0.7189 0.4745
vn 0.8217 0.3987 -0.4072
vn 0.7903 0.4374 -0.4291
vn 0.1690 0.5023 -0.8480
vn 0.1540 0.4874 -0.8595
vn -0.4989 0.4115 -0.7628
vn -0.5047 0.4061 -0.7618
vn -0.5254 0.3866 -0.7580
vn -0.9313 0.3085 -0.1938
vn -0.8339 -0.0864 -0.5451
vn -0.9959 -0.0280 0.0863
vn -0.6048 -0.1375 0.7844
vn -0.1757 0.2783 0.9443
vn 0.3811 0.2707 0.8840
vn 0.4060 0.3073 0.8607
vn 0.8957 0.3959 0.2024
vn 0.9198 0.3584 0.1595
vn -0.5462 -0.1987 -0.8138
vn -0.7098 -0.2726 -0.6495
vn -0.8803 -0.2284 -0.4159
vn -0.7723 -0.5105 0.3781
vn -0.6734 -0.6218 0.3998
vn -0.1907 -0.5533 0.8109
vn 0.0226 0.6521 0.7578
vn 0.5124 0.8543 -0.0871
vn -0.7960 0.5946 0.1131
vn 0.0639 -0.8161 -0.5744
vn -0.6764 -0.4759 0.5622
vn 0.9970 0.0677 -0.0378
vn 0.2528 0.8683 0.4267
vn 0.8267 0.4813 -0.2913
vn -0.4790 0.8191 -0.3156
vn -0.2528 -0.9507 -0.1794
vn -0.8424 0.1008 0.5293
vn 0.9343 -0.3125 0.1716
vn -0.3631 -0.3159 0.8766
vn 0.0000 1.0000 -0.0000
vn 0.0068 0.9232 -0.3841
vn -0.1540 0.7256 -0.6707
vn -0.8766 -0.3159 0.3631
vn -0.9408 -0.3391 -0.0000
vn 0.4782 0.8783 0.0025
vn 0.7419 0.6402 0.1990
vn 0.9080 0.1860 -0.3753
vn 0.9521 0.3058 0.0001
vn -0.8766 -0.3159 -0.3631
vn -0.6652 -0.3391 -0.6652
vn 0.3368 0.8793 0.3368
vn 0.6769 0.2968 0.6736
vn -0.3631 -0.3159 -0.8766
vn 0.0105 -0.3390 -0.9407
vn -0.0280 0.7934 0.6080
vn -0.8105 0.2765 -0.5165
vn -0.8359 0.2361 -0.4954
vn -0.8738 0.1666 -0.4568
vn 0.0238 0.5258 -0.8502
vn 0.3180 0.2063 -0.9254
vn 0.7109 -0.0012 0.7033
vn 0.7180 -0.0036 0.6960
vn 0.7071 -0.0000 0.7071
vn 0.3777 -0.3155 -0.8705
vn 0.3767 -0.3141 -0.8715
vn 0.3759 -0.3161 -0.8711
vn 0.1136 0.7237 0.6807
vn 0.8766 -0.3159 -0.3631
vn -0.4778 0.8785 -0.0020
vn -0.7390 0.6427 -0.2021
vn -0.9031 0.2119 0.3735
vn -0.9521 0.3058 0.0003
vn 0.8766 -0.3159 0.3631
vn 0.6571 -0.3407 0.6724
vn 0.9408 -0.3391 0.0000
vn -0.3315 0.8810 -0.3375
vn -0.6565 0.3189 -0.6836
vn 0.3458 -0.3155 0.8837
vn -0.0126 -0.3390 0.9407
vn 0.3483 -0.3139 0.8833
vn 0.8124 0.2782 0.5125
vn 0.8341 0.2424 0.4955
vn 0.8737 0.1667 0.4570
vn -0.3976 -0.1060 0.9114
vn -0.4107 0.1935 0.8910
vn -0.7071 0.0000 -0.7071
vn 0.4066 -0.2075 0.8897
vn 0.3786 -0.3153 -0.8702
vn -0.2693 0.9559 0.1173
vn -0.5289 0.8193 0.2214
vn -0.4469 0.8511 0.2755
vn -0.5475 0.7705 0.3266
vn -0.0519 0.9497 0.3087
vn 0.1414 0.9471 0.2880
vn 0.0259 0.9618 0.2726
vn 0.0140 0.9629 0.2693
vn -0.1200 0.9797 0.1603
vn -0.7335 0.6726 -0.0980
vn -0.6571 0.5934 0.4649
vn -0.2439 0.5638 0.7891
vn 0.3033 0.6718 0.6758
vn 0.1187 0.9682 0.2204
vn 0.4061 0.8834 -0.2338
vn 0.0522 0.8277 -0.5587
vn -0.3947 0.8006 -0.4508
vn -0.9486 0.3022 0.0943
vn -0.9336 0.3044 -0.1889
vn -0.4173 0.1377 0.8983
vn -0.0421 0.1596 0.9863
vn 0.6831 0.3180 0.6574
vn 0.7043 0.3633 0.6100
vn 0.7356 0.4459 0.5100
vn 0.8466 0.5296 -0.0531
vn 0.8361 0.5445 -0.0671
vn 0.8669 0.4980 -0.0238
vn 0.4401 0.5841 -0.6820
vn 0.4337 0.5726 -0.6957
vn -0.2083 0.5477 -0.8103
vn -0.2158 0.5413 -0.8127
vn -0.7931 0.3952 -0.4634
vn -0.6518 0.1474 0.7439
vn 0.2484 0.7486 0.6147
vn 0.6544 0.7032 -0.2780
vn 0.2462 0.9596 -0.1364
vn 0.8841 0.4540 -0.1105
# 195 vertex normals

vt 0.5997 0.1587 0.0000
vt 0.6054 0.3975 0.0000
vt 0.5187 0.3682 0.0000
vt 0.5060 0.2080 0.0000
vt 0.0220 0.4322 0.0000
vt 0.1161 0.3880 0.0000
vt 0.2393 0.5025 0.0000
vt 0.1972 0.5985 0.0000
vt 0.3809 0.0915 0.0000
vt 0.2302 0.1210 0.0000
vt 0.1814 0.0129 0.0000
vt 0.4119 0.0127 0.0000
vt 0.0039 0.1842 0.0000
vt 0.1315 0.2328 0.0000
vt 0.3266 0.4986 0.0000
vt 0.3625 0.5221 0.0000
vt 0.4104 0.5165 0.0000
vt 0.4433 0.5967 0.0000
vt 0.3288 0.3230 0.0000
vt 0.3122 0.4357 0.0000
vt 0.3566 0.3887 0.0000
vt 0.4883 0.2499 0.0000
vt 0.4235 0.2581 0.0000
vt 0.2549 0.1716 0.0000
vt 0.2004 0.2643 0.0000
vt 0.8600 0.1851 0.0000
vt 0.9169 0.1754 0.0000
vt 0.8965 0.2400 0.0000
vt 0.8506 0.2515 0.0000
vt 0.7852 0.1640 0.0000
vt 0.8183 0.1370 0.0000
vt 0.8524 0.1280 0.0000
vt 0.8877 0.1371 0.0000
vt 0.9122 0.1519 0.0000
vt 0.9940 0.1694 0.0000
vt 0.9389 0.2799 0.0000
vt 0.8752 0.3169 0.0000
vt 0.7340 0.0994 0.0000
vt 0.7901 0.0787 0.0000
vt 0.8486 0.0657 0.0000
vt 0.9058 0.0728 0.0000
vt 0.9638 0.1016 0.0000
vt 0.9066 0.3581 0.0000
vt 0.7308 0.0398 0.0000
vt 0.7840 0.0205 0.0000
vt 0.8556 0.0100 0.0000
vt 0.9111 0.0139 0.0000
vt 0.9777 0.8844 0.0000
vt 0.9478 0.8819 0.0000
vt 0.9467 0.8687 0.0000
vt 0.7353 0.9039 0.0000
vt 0.9317 0.8378 0.0000
vt 0.9431 0.8957 0.0000
vt 0.7347 0.2310 0.0000
vt 0.6722 0.2453 0.0000
vt 0.6840 0.2057 0.0000
vt 0.7161 0.1831 0.0000
vt 0.7567 0.1754 0.0000
vt 0.7969 0.2362 0.0000
vt 0.7742 0.2636 0.0000
vt 0.7408 0.2764 0.0000
vt 0.7044 0.2836 0.0000
vt 0.6814 0.2666 0.0000
vt 0.6096 0.2511 0.0000
vt 0.6318 0.1756 0.0000
vt 0.6648 0.1163 0.0000
vt 0.7355 0.1124 0.0000
vt 0.8535 0.2770 0.0000
vt 0.8042 0.3093 0.0000
vt 0.7544 0.3325 0.0000
vt 0.6936 0.3459 0.0000
vt 0.6333 0.3067 0.0000
vt 0.6971 0.0807 0.0000
vt 0.8299 0.3522 0.0000
vt 0.8625 0.3263 0.0000
vt 0.7736 0.3798 0.0000
vt 0.9800 0.8747 0.0000
vt 0.9579 0.8765 0.0000
vt 0.9563 0.8562 0.0000
vt 0.7352 0.9032 0.0000
vt 0.9417 0.8298 0.0000
vt 0.9543 0.8984 0.0000
vt 0.2231 0.9044 0.0000
vt 0.0090 0.8362 0.0000
vt 0.0200 0.7753 0.0000
vt 0.0593 0.9317 0.0000
vt 0.2705 0.9317 0.0000
vt 0.2705 0.9629 0.0000
vt 0.0689 0.9629 0.0000
vt 0.6931 0.8820 0.0000
vt 0.6138 0.6127 0.0000
vt 0.7686 0.5461 0.0000
vt 0.8817 0.7346 0.0000
vt 0.7161 0.9629 0.0000
vt 0.7161 0.9317 0.0000
vt 0.9444 0.9317 0.0000
vt 0.9316 0.9629 0.0000
vt 0.9296 0.9912 0.0000
vt 0.7161 0.9912 0.0000
vt 0.4524 0.9208 0.0000
vt 0.4524 0.6404 0.0000
vt 0.4923 0.9629 0.0000
vt 0.4923 0.9317 0.0000
vt 0.4923 0.9912 0.0000
vt 0.2757 0.6287 0.0000
vt 0.0370 0.9631 0.0000
vt 0.0062 0.9242 0.0000
vt 0.2705 0.9912 0.0000
vt 0.0627 0.9912 0.0000
vt 0.9917 0.9415 0.0000
vt 0.9616 0.9661 0.0000
vt 0.9134 0.7877 0.0000
vt 0.1141 0.5766 0.0000
vt 0.2453 0.2185 0.0000
vt 0.1614 0.1134 0.0000
vt 0.1147 0.1957 0.0000
vt 0.1244 0.1543 0.0000
vt 0.4329 0.1201 0.0000
vt 0.3945 0.1451 0.0000
vt 0.3742 0.1887 0.0000
vt 0.3819 0.2290 0.0000
vt 0.8069 0.5286 0.0000
vt 0.8377 0.4614 0.0000
vt 0.8669 0.4973 0.0000
vt 0.8681 0.5388 0.0000
vt 0.8460 0.5761 0.0000
vt 0.8113 0.5979 0.0000
vt 0.7411 0.5465 0.0000
vt 0.7564 0.5050 0.0000
vt 0.7796 0.4657 0.0000
vt 0.8121 0.4559 0.0000
vt 0.9268 0.4523 0.0000
vt 0.8749 0.3992 0.0000
vt 0.9410 0.5231 0.0000
vt 0.9095 0.6068 0.0000
vt 0.8737 0.6699 0.0000
vt 0.6988 0.4688 0.0000
vt 0.6494 0.5224 0.0000
vt 0.7380 0.4082 0.0000
vt 0.8114 0.3840 0.0000
vt 0.4905 0.1533 0.0000
vt 0.4410 0.4690 0.0000
vt 0.4267 0.4124 0.0000
# 143 texture coords

g UC109
usemtl 08___Default
s 1
f 1/1/1 2/2/2 3/3/3 
f 3/3/3 4/4/4 1/1/1 
f 5/5/5 6/6/6 7/7/7 
f 7/7/7 8/8/8 5/5/5 
f 9/9/9 10/10/10 11/11/11 
f 11/11/11 12/12/12 9/9/9 
f 13/13/13 14/14/14 6/6/6 
f 6/6/6 5/5/5 13/13/13 
s 2
f 8/8/15 7/7/7 15/15/16 
f 8/8/15 15/15/16 16/16/17 
s 4
f 16/16/18 17/17/19 18/18/20 
f 8/8/21 16/16/18 18/18/20 
s 1
f 19/19/22 7/7/7 6/6/6 
f 20/20/23 15/15/24 7/7/7 
f 20/20/23 7/7/7 19/19/22 
f 20/20/23 19/19/22 21/21/25 
f 22/22/26 4/4/4 3/3/3 
f 22/22/26 3/3/3 19/19/22 
f 22/22/26 19/19/22 23/23/27 
f 9/9/9 19/19/22 24/24/28 
f 24/24/28 10/10/10 9/9/9 
f 6/6/6 14/14/14 25/25/29 
f 25/25/29 19/19/22 6/6/6 
f 26/26/30 27/27/31 28/28/32 
f 26/26/30 28/28/32 29/29/33 
f 26/26/30 29/30/33 30/31/34 
f 26/26/30 30/31/34 31/32/35 
f 26/26/30 31/32/35 32/33/36 
f 26/26/30 32/33/36 33/34/37 
f 26/26/30 33/34/37 27/27/31 
s 2
f 21/35/38 34/36/39 28/28/32 
f 28/28/32 27/27/31 21/35/38 
s 4
f 28/28/32 34/36/40 35/37/41 
f 35/37/41 29/29/42 28/28/32 
s 2
f 29/30/43 35/38/44 36/39/45 
f 36/39/45 30/31/34 29/30/43 
s 4
f 30/31/34 36/39/45 37/40/46 
f 37/40/46 31/32/35 30/31/34 
s 2
f 31/32/35 37/40/46 38/41/47 
f 38/41/47 32/33/36 31/32/35 
s 4
f 32/33/36 38/41/47 20/42/48 
f 20/42/48 33/34/37 32/33/36 
s 8
f 33/34/37 20/42/49 21/35/50 
f 21/35/50 27/27/31 33/34/37 
f 34/36/51 39/43/51 35/37/51 
s 16
f 35/38/52 39/44/53 17/45/54 
f 17/45/54 36/39/45 35/38/52 
s 8
f 36/39/45 17/45/55 16/46/56 
f 16/46/56 37/40/46 36/39/45 
s 16
f 37/40/46 16/46/57 15/47/58 
f 15/47/58 38/41/47 37/40/46 
s 1
f 40/48/59 41/49/60 42/50/61 
s 2
f 43/51/62 40/52/63 42/50/61 
s 4
f 43/51/62 41/49/60 40/53/64 
s 8
f 43/51/62 42/50/61 41/49/60 
s 32
f 20/42/65 38/41/47 15/47/65 
s 1
f 44/54/66 45/55/67 46/56/68 
f 44/54/66 46/56/68 47/57/69 
f 44/54/66 47/57/69 48/58/70 
f 44/54/66 48/59/70 49/60/71 
f 44/54/66 49/60/71 50/61/72 
f 44/54/66 50/61/72 51/62/73 
f 44/54/66 51/62/73 52/63/74 
f 44/54/66 52/63/74 45/55/67 
s 2
f 45/55/67 53/64/75 25/65/76 
f 25/65/76 46/56/68 45/55/67 
s 4
f 47/57/69 46/56/68 25/65/77 
f 25/65/77 14/66/78 47/57/69 
s 2
f 48/58/79 47/57/69 14/66/80 
f 14/66/80 54/67/81 48/58/79 
s 8
f 48/59/82 54/68/83 55/69/84 
f 55/69/84 49/60/71 48/59/82 
s 2
f 49/60/71 55/69/84 56/70/85 
f 56/70/85 50/61/72 49/60/71 
s 4
f 56/70/85 10/71/86 51/62/73 
f 51/62/73 50/61/72 56/70/85 
s 2
f 51/62/73 10/71/87 24/72/88 
f 24/72/88 52/63/74 51/62/73 
s 4
f 24/72/89 53/64/90 45/55/67 
f 45/55/67 52/63/74 24/72/89 
s 8
f 14/66/91 57/73/92 54/67/83 
f 58/74/93 55/69/84 54/68/83 
f 54/68/83 57/75/92 58/74/93 
s 16
f 56/70/85 55/69/84 58/74/94 
f 58/74/94 59/76/95 56/70/85 
s 8
f 10/71/96 56/70/85 59/76/96 
s 1
f 60/77/97 61/78/98 62/79/99 
s 2
f 63/80/100 60/81/101 62/79/99 
s 4
f 63/80/100 61/78/98 60/82/102 
s 8
f 63/80/100 62/79/99 61/78/98 
s 1
f 64/77/103 65/78/104 66/79/105 
s 2
f 67/80/106 64/81/107 66/79/105 
s 4
f 67/80/106 65/78/104 64/82/108 
s 8
f 67/80/106 66/79/105 65/78/104 
s 1
f 68/83/109 69/84/109 70/85/109 
s 2
f 69/86/110 68/87/110 71/88/111 
f 71/88/111 72/89/112 69/86/110 
f 73/90/113 74/91/114 75/92/113 
f 75/92/113 70/93/113 73/90/113 
s 1
f 76/94/115 73/95/110 77/96/110 
f 77/96/110 78/97/116 76/94/115 
s 2
f 76/94/115 78/97/116 11/98/117 
f 11/98/117 79/99/118 76/94/115 
s 4
f 80/100/119 81/101/120 74/91/114 
f 74/91/114 73/90/119 80/100/119 
s 1
f 73/95/110 76/94/115 82/102/121 
f 82/102/121 80/103/110 73/95/110 
s 4
f 82/102/121 76/94/115 79/99/118 
f 79/99/118 83/104/122 82/102/121 
s 2
f 84/83/123 85/105/124 81/101/120 
f 81/101/120 80/100/123 84/83/123 
s 1
f 86/88/125 84/87/110 80/103/110 
f 80/103/110 82/102/121 86/88/125 
s 4
f 69/86/126 72/89/112 11/106/127 
f 11/106/127 70/107/128 69/86/126 
s 8
f 87/108/129 11/109/130 72/89/112 
f 87/108/129 72/89/112 71/88/111 
s 16
f 70/110/131 11/111/132 78/97/116 
f 78/97/116 77/96/133 70/110/131 
s 4
f 84/83/134 88/84/135 89/85/136 
s 1
f 88/86/110 84/87/110 86/88/125 
f 86/88/125 90/89/137 88/86/110 
f 89/93/138 91/112/138 92/90/138 
s 2
f 93/94/139 92/95/110 91/96/110 
f 91/96/110 94/97/140 93/94/139 
s 1
f 93/94/139 94/97/140 95/98/141 
f 95/98/141 96/99/142 93/94/139 
s 4
f 97/100/143 98/101/144 99/91/145 
f 99/91/145 92/90/143 97/100/143 
s 2
f 100/102/146 97/103/110 92/95/110 
f 92/95/110 93/94/139 100/102/146 
s 4
f 100/102/146 93/94/139 96/99/142 
f 96/99/142 101/104/147 100/102/146 
s 8
f 68/83/148 102/105/149 98/101/144 
f 98/101/144 97/100/150 68/83/148 
s 2
f 71/88/111 68/87/110 97/103/110 
f 97/103/110 100/102/146 71/88/111 
s 1
f 71/88/111 100/102/146 101/104/147 
f 101/104/147 87/108/129 71/88/111 
s 2
f 88/86/151 90/89/137 95/106/152 
f 95/106/152 89/107/153 88/86/151 
s 8
f 8/108/154 95/109/155 90/89/137 
f 8/108/154 90/89/137 86/88/125 
s 16
f 94/97/140 91/96/156 89/110/156 
f 94/97/140 89/110/156 95/111/156 
f 83/104/122 8/108/157 86/88/125 
f 86/88/125 82/102/121 83/104/122 
s 4
f 103/113/158 85/105/124 84/83/134 
f 84/83/134 89/85/136 103/113/158 
s 1
f 92/90/138 99/91/145 103/92/138 
f 103/92/138 89/93/138 92/90/138 
f 75/113/109 102/105/149 68/83/109 
f 68/83/109 70/85/109 75/113/109 
s 2
f 70/93/113 77/112/113 73/90/113 
s 1
f 24/24/28 19/19/22 53/114/159 
f 53/114/159 19/19/22 25/25/29 
f 11/11/11 10/10/10 59/115/160 
f 57/116/161 14/14/14 13/13/13 
f 58/117/162 57/116/161 13/13/13 
f 59/115/160 58/117/162 13/13/13 
f 11/11/11 59/115/160 13/13/13 
f 9/9/9 104/118/163 105/119/164 
f 9/9/9 105/119/164 106/120/165 
f 107/121/166 23/23/27 19/19/22 
f 106/120/165 107/121/166 19/19/22 
f 9/9/9 106/120/165 19/19/22 
f 108/122/167 109/123/168 110/124/169 
f 108/122/167 110/124/169 111/125/170 
f 108/122/167 111/125/170 112/126/171 
f 108/122/167 112/126/171 113/127/172 
f 108/122/167 113/128/172 114/129/173 
f 108/122/167 114/129/173 115/130/174 
f 108/122/167 115/130/174 116/131/175 
f 108/122/167 116/131/175 109/123/168 
s 2
f 105/132/176 110/124/169 109/123/168 
f 109/123/168 106/133/177 105/132/176 
s 4
f 111/125/170 104/134/178 117/135/179 
f 117/135/179 112/126/171 111/125/170 
s 2
f 112/126/171 117/135/180 4/136/181 
f 4/136/181 113/127/182 112/126/171 
s 4
f 22/137/183 114/129/173 113/128/184 
f 113/128/184 4/138/185 22/137/183 
s 2
f 22/137/186 23/139/187 115/130/174 
f 115/130/174 114/129/173 22/137/186 
s 4
f 23/139/188 107/140/189 116/131/175 
f 116/131/175 115/130/174 23/139/188 
s 2
f 109/123/168 116/131/175 107/140/190 
f 107/140/190 106/133/177 109/123/168 
s 4
f 104/134/178 111/125/170 110/124/169 
f 110/124/169 105/132/191 104/134/178 
s 1
f 1/1/1 4/4/4 117/141/192 
f 104/118/163 9/9/9 12/12/12 
f 117/141/192 104/118/163 12/12/12 
f 1/1/1 117/141/192 12/12/12 
f 3/3/3 39/142/193 34/143/194 
f 3/3/3 34/143/194 21/21/25 
f 3/3/3 21/21/25 19/19/22 
f 39/142/193 3/3/3 2/2/2 
f 39/142/193 2/2/2 18/18/20 
f 39/142/193 18/18/20 17/17/195 
# 0 polygons - 200 triangles

