# This file uses centimeters as units for non-parametric coordinates.

mtllib Mushrooms_01.mtl
g default
v -2.651247 0.000000 -2.676914
v -3.247241 0.000000 -2.483264
v -3.247241 0.000000 -1.856599
v -2.651247 0.000000 -1.662949
v -2.282903 0.000000 -2.169931
v -2.699468 2.394479 -2.462137
v -3.042976 2.392993 -2.350525
v -3.042976 2.392993 -1.989338
v -2.699468 2.394479 -1.877725
v -2.487168 2.395396 -2.169931
v -4.186142 2.290728 -1.374938
v -1.432205 2.290728 -1.374938
v -2.809174 2.290728 -3.759918
v -2.809173 2.290728 -0.579945
v -1.432205 2.290728 -2.964925
v -4.186142 2.290728 -2.964924
v -2.809174 2.981251 -2.169931
v -4.399160 2.290728 -2.169931
v -3.604167 2.290728 -0.792963
v -2.809174 2.770308 -1.298995
v -3.563427 2.770308 -2.605400
v -3.563427 2.770308 -1.734463
v -2.014180 2.290728 -0.792963
v -1.219187 2.290728 -2.169932
v -2.054920 2.770308 -2.605400
v -2.054920 2.770308 -1.734463
v -2.014180 2.290728 -3.546900
v -3.604167 2.290728 -3.546900
v -2.809174 2.770308 -3.040868
vt 0.253257 0.679893
vt 0.082865 0.778269
vt 0.030146 0.581517
vt 0.253257 0.483142
vt 0.082865 0.384766
vt 0.226897 0.240734
vt 0.423649 0.188014
vt 0.423649 0.384766
vt 0.423649 0.581517
vt 0.620400 0.240734
vt 0.594040 0.483142
vt 0.764432 0.384766
vt 0.817151 0.581517
vt 0.764432 0.778269
vt 0.594040 0.679893
vt 0.620400 0.922301
vt 0.423649 0.778269
vt 0.423649 0.975020
vt 0.226897 0.922301
vt 0.887273 0.036496
vt 0.922458 0.031702
vt 0.975696 0.319678
vt 0.914676 0.328267
vt 0.725672 0.320150
vt 0.778324 0.031662
vt 0.811888 0.035436
vt 0.783906 0.326699
vt 0.832631 0.037769
vt 0.819897 0.330746
vt 0.853499 0.037245
vt 0.856103 0.329837
vn -0.806040 0.101132 -0.583157
vn -0.803194 0.101106 -0.587074
vn 0.312152 0.091117 -0.945653
vn 0.304683 0.091184 -0.948079
vn -0.803195 0.101106 0.587074
vn -0.806040 0.101132 0.583157
vn 0.312152 0.091117 0.945653
vn 0.304683 0.091184 0.948079
vn 0.996382 0.084986 0.000000
vn 0.996382 0.084986 0.000000
vn -0.331396 0.923888 -0.191331
vn -0.429848 0.868125 -0.248173
vn -0.515931 0.855503 0.043935
vn -0.353572 0.912861 0.204135
vn -0.480532 0.831936 0.277436
vn -0.296014 0.855502 0.424842
vn 0.000000 0.868125 0.496346
vn 0.000000 0.923888 0.382663
vn 0.000000 1.000000 -0.000000
vn 0.296014 0.855503 0.424842
vn 0.353572 0.912861 0.204135
vn 0.480532 0.831936 0.277435
vn 0.515931 0.855503 0.043934
vn 0.429848 0.868125 -0.248173
vn 0.331396 0.923888 -0.191331
vn 0.219917 0.855503 -0.468777
vn -0.000000 0.912861 -0.408270
vn -0.000000 0.831936 -0.554871
vn -0.219917 0.855503 -0.468777
s 1
g Seta2 GRP_Setas_01
usemtl lambert2SG
f 2/24/1 7/25/2 6/26/3 1/27/4
f 8/20/5 7/21/2 2/22/1 3/23/6
f 9/30/7 8/20/5 3/23/6 4/31/8
f 10/28/9 9/30/7 4/31/8 5/29/10
f 6/26/3 10/28/9 5/29/10 1/27/4
s 2
f 21/1/11 16/2/12 18/3/13 22/4/14
f 18/3/13 11/5/15 19/6/16 22/4/14
f 19/6/16 14/7/17 20/8/18 22/4/14
f 20/8/18 17/9/19 21/1/11 22/4/14
f 20/8/18 14/7/17 23/10/20 26/11/21
f 23/10/20 12/12/22 24/13/23 26/11/21
f 24/13/23 15/14/24 25/15/25 26/11/21
f 25/15/25 17/9/19 20/8/18 26/11/21
f 25/15/25 15/14/24 27/16/26 29/17/27
f 27/16/26 13/18/28 28/19/29 29/17/27
f 28/19/29 16/2/12 21/1/11 29/17/27
f 21/1/11 17/9/19 25/15/25 29/17/27
g default
v 0.020771 0.000000 -2.346009
v -0.363574 0.000000 -2.221128
v -0.363574 0.000000 -1.817003
v 0.020771 0.000000 -1.692121
v 0.258309 0.000000 -2.019065
v -0.010326 1.918838 -2.207503
v -0.231848 1.918838 -2.135526
v -0.231848 1.918838 -1.902604
v -0.010326 1.918838 -1.830627
v 0.126583 1.918838 -2.019065
v -0.896973 1.521049 -1.548005
v 0.734828 1.521049 -1.548005
v -0.081073 1.521049 -2.961186
v -0.081073 1.521049 -1.076945
v 0.734828 1.521049 -2.490126
v -0.896973 1.521049 -2.490125
v -0.081073 2.262524 -2.019065
v -1.023193 1.521049 -2.019065
v -0.552133 1.521049 -1.203165
v -0.081073 2.122553 -1.457414
v -0.567477 2.122553 -2.299891
v -0.567477 2.122553 -1.738240
v 0.389988 1.521049 -1.203165
v 0.861048 1.521049 -2.019065
v 0.405331 2.122553 -2.299891
v 0.405331 2.122553 -1.738240
v 0.389987 1.521049 -2.834966
v -0.552133 1.521049 -2.834965
v -0.081073 2.122553 -2.580716
vt 0.253257 0.679893
vt 0.082865 0.778269
vt 0.030146 0.581517
vt 0.253257 0.483142
vt 0.082865 0.384766
vt 0.226897 0.240734
vt 0.423649 0.188014
vt 0.423649 0.384766
vt 0.423649 0.581517
vt 0.620400 0.240734
vt 0.594040 0.483142
vt 0.764432 0.384766
vt 0.817151 0.581517
vt 0.764432 0.778269
vt 0.594040 0.679893
vt 0.620400 0.922301
vt 0.423649 0.778269
vt 0.423649 0.975020
vt 0.226897 0.922301
vt 0.887273 0.036496
vt 0.922458 0.031702
vt 0.975696 0.319678
vt 0.914676 0.328267
vt 0.725672 0.320150
vt 0.778324 0.031662
vt 0.811888 0.035436
vt 0.783906 0.326699
vt 0.832631 0.037769
vt 0.819897 0.330746
vt 0.853499 0.037245
vt 0.856103 0.329837
vn -0.807286 0.081495 -0.584507
vn -0.805422 0.081481 -0.587075
vn 0.310559 0.073441 -0.947713
vn 0.305670 0.073476 -0.949298
vn -0.805422 0.081481 0.587074
vn -0.807286 0.081495 0.584506
vn 0.310558 0.073441 0.947713
vn 0.305670 0.073476 0.949298
vn 0.997652 0.068488 0.000000
vn 0.997652 0.068488 0.000000
vn -0.548849 0.773533 -0.316878
vn -0.690950 0.602868 -0.398920
vn -0.812385 0.576964 0.084514
vn -0.554435 0.768203 0.320104
vn -0.731900 0.534568 0.422562
vn -0.479384 0.576965 0.661289
vn 0.000000 0.602868 0.797841
vn 0.000000 0.773533 0.633756
vn 0.000000 1.000000 0.000000
vn 0.479384 0.576965 0.661289
vn 0.554435 0.768203 0.320103
vn 0.731900 0.534568 0.422563
vn 0.812385 0.576964 0.084514
vn 0.690950 0.602868 -0.398920
vn 0.548849 0.773533 -0.316878
vn 0.333001 0.576965 -0.745803
vn -0.000000 0.768203 -0.640207
vn 0.000000 0.534568 -0.845125
vn -0.333001 0.576965 -0.745803
s 1
g GRP_Setas_01 Seta3
usemtl lambert2SG
f 31/55/30 36/56/31 35/57/32 30/58/33
f 37/51/34 36/52/31 31/53/30 32/54/35
f 38/61/36 37/51/34 32/54/35 33/62/37
f 39/59/38 38/61/36 33/62/37 34/60/39
f 35/57/32 39/59/38 34/60/39 30/58/33
s 2
f 50/32/40 45/33/41 47/34/42 51/35/43
f 47/34/42 40/36/44 48/37/45 51/35/43
f 48/37/45 43/38/46 49/39/47 51/35/43
f 49/39/47 46/40/48 50/32/40 51/35/43
f 49/39/47 43/38/46 52/41/49 55/42/50
f 52/41/49 41/43/51 53/44/52 55/42/50
f 53/44/52 44/45/53 54/46/54 55/42/50
f 54/46/54 46/40/48 49/39/47 55/42/50
f 54/46/54 44/45/53 56/47/55 58/48/56
f 56/47/55 42/49/57 57/50/58 58/48/56
f 57/50/58 45/33/41 50/32/40 58/48/56
f 50/32/40 46/40/48 54/46/54 58/48/56
g default
v 0.239366 0.000000 -0.768426
v -0.663972 0.000000 -0.474913
v -0.663972 0.000000 0.474913
v 0.239366 0.000000 0.768426
v 0.797660 0.000000 0.000000
v 0.166280 4.509902 -0.442892
v -0.354371 4.509902 -0.273722
v -0.354371 4.509902 0.273722
v 0.166279 4.509902 0.442892
v 0.488059 4.509902 0.000000
v -2.041883 4.042561 1.220623
v 2.041883 4.042561 1.220623
v -0.000000 4.042561 -2.441246
v 0.000000 4.042561 2.441246
v 2.041883 4.042561 -1.220623
v -2.041883 4.042561 -1.220623
v -0.000000 5.317677 0.000000
v -2.357764 4.042561 0.000000
v -1.178882 4.042561 2.114181
v 0.000000 4.988699 1.320065
v -1.143210 4.988699 -0.660032
v -1.143210 4.988699 0.660033
v 1.178882 4.042561 2.114181
v 2.357764 4.042561 -0.000000
v 1.143210 4.988699 -0.660033
v 1.143210 4.988699 0.660032
v 1.178881 4.042561 -2.114181
v -1.178882 4.042561 -2.114181
v -0.000000 4.988699 -1.320065
vt 0.253257 0.679893
vt 0.082865 0.778269
vt 0.030146 0.581517
vt 0.253257 0.483142
vt 0.082865 0.384766
vt 0.226897 0.240734
vt 0.423649 0.188014
vt 0.423649 0.384766
vt 0.423649 0.581517
vt 0.620400 0.240734
vt 0.594040 0.483142
vt 0.764432 0.384766
vt 0.817151 0.581517
vt 0.764432 0.778269
vt 0.594040 0.679893
vt 0.620400 0.922301
vt 0.423649 0.778269
vt 0.423649 0.975020
vt 0.226897 0.922301
vt 0.887273 0.036496
vt 0.922458 0.031702
vt 0.975696 0.319678
vt 0.914676 0.328267
vt 0.725672 0.320150
vt 0.778324 0.031662
vt 0.811888 0.035436
vt 0.783906 0.326699
vt 0.832631 0.037769
vt 0.819897 0.330746
vt 0.853499 0.037245
vt 0.856103 0.329837
vn -0.807286 0.081495 -0.584507
vn -0.805422 0.081481 -0.587075
vn 0.310558 0.073441 -0.947713
vn 0.305670 0.073476 -0.949298
vn -0.805422 0.081481 0.587075
vn -0.807286 0.081495 0.584506
vn 0.310558 0.073441 0.947713
vn 0.305670 0.073476 0.949298
vn 0.997652 0.068488 0.000000
vn 0.997652 0.068488 0.000000
vn -0.409582 0.882766 -0.230144
vn -0.523571 0.795821 -0.304206
vn -0.631963 0.772933 0.056555
vn -0.426157 0.872091 0.240515
vn -0.582234 0.745386 0.324658
vn -0.359299 0.786467 0.502368
vn 0.000000 0.807506 0.589859
vn 0.000000 0.888311 0.459242
vn -0.000000 1.000000 0.000000
vn 0.359299 0.786467 0.502368
vn 0.426157 0.872091 0.240515
vn 0.582234 0.745386 0.324658
vn 0.631962 0.772933 0.056555
vn 0.523571 0.795821 -0.304206
vn 0.409582 0.882766 -0.230144
vn 0.256910 0.788548 -0.558738
vn -0.000000 0.878067 -0.478537
vn -0.000000 0.764244 -0.644928
vn -0.256910 0.788548 -0.558738
s 1
g GRP_Setas_01 Seta1
usemtl lambert2SG
f 60/86/59 65/87/60 64/88/61 59/89/62
f 66/82/63 65/83/60 60/84/59 61/85/64
f 67/92/65 66/82/63 61/85/64 62/93/66
f 68/90/67 67/92/65 62/93/66 63/91/68
f 64/88/61 68/90/67 63/91/68 59/89/62
s 2
f 79/63/69 74/64/70 76/65/71 80/66/72
f 76/65/71 69/67/73 77/68/74 80/66/72
f 77/68/74 72/69/75 78/70/76 80/66/72
f 78/70/76 75/71/77 79/63/69 80/66/72
f 78/70/76 72/69/75 81/72/78 84/73/79
f 81/72/78 70/74/80 82/75/81 84/73/79
f 82/75/81 73/76/82 83/77/83 84/73/79
f 83/77/83 75/71/77 78/70/76 84/73/79
f 83/77/83 73/76/82 85/78/84 87/79/85
f 85/78/84 71/80/86 86/81/87 87/79/85
f 86/81/87 74/64/70 79/63/69 87/79/85
f 79/63/69 75/71/77 83/77/83 87/79/85
