# This file uses centimeters as units for non-parametric coordinates.

mtllib Mushrooms_02.mtl
g default
v 1.290400 0.000000 -1.630180
v 0.595728 0.000000 -1.404467
v 0.595728 0.000000 -0.674045
v 1.290400 0.000000 -0.448333
v 1.719731 0.000000 -1.039257
v 1.234196 3.468139 -1.379843
v 0.833813 3.468139 -1.249751
v 0.833812 3.468139 -0.828763
v 1.234196 3.468139 -0.698670
v 1.481646 3.468139 -1.039257
v 0.041238 1.999110 -0.424327
v 2.171414 1.999110 -0.424327
v 1.106326 1.999110 -2.269116
v 1.106326 1.999110 0.190603
v 2.171414 1.999110 -1.654187
v 0.041238 1.999110 -1.654186
v 1.106326 4.037182 -1.039257
v -0.123535 1.999110 -1.039257
v 0.491396 1.999110 0.025837
v 1.106326 3.515577 -0.272726
v 0.442490 3.515577 -1.422523
v 0.442490 3.515577 -0.655994
v 1.721257 1.999110 0.025832
v 2.336188 1.999110 -1.039257
v 1.770161 3.515577 -1.422521
v 1.770162 3.515577 -0.655990
v 1.721257 1.999110 -2.104347
v 0.491395 1.999110 -2.104347
v 1.106326 3.515577 -1.805786
vt 0.253257 0.679893
vt 0.082865 0.778269
vt 0.030146 0.581517
vt 0.253257 0.483142
vt 0.082865 0.384766
vt 0.226897 0.240734
vt 0.423649 0.188014
vt 0.423649 0.384766
vt 0.423649 0.581517
vt 0.620400 0.240734
vt 0.594040 0.483142
vt 0.764432 0.384766
vt 0.817151 0.581517
vt 0.764432 0.778269
vt 0.594040 0.679893
vt 0.620400 0.922301
vt 0.423649 0.778269
vt 0.423649 0.975020
vt 0.226897 0.922301
vt 0.887273 0.036496
vt 0.922458 0.031702
vt 0.975696 0.319678
vt 0.914676 0.328267
vt 0.725672 0.320150
vt 0.778324 0.031662
vt 0.811888 0.035436
vt 0.783906 0.326699
vt 0.832631 0.037769
vt 0.819897 0.330746
vt 0.853499 0.037245
vt 0.856103 0.329837
vn -0.807286 0.081495 -0.584507
vn -0.805422 0.081481 -0.587075
vn 0.310558 0.073441 -0.947713
vn 0.305670 0.073476 -0.949298
vn -0.805422 0.081482 0.587075
vn -0.807286 0.081495 0.584506
vn 0.310558 0.073441 0.947713
vn 0.305670 0.073476 0.949298
vn 0.997652 0.068488 0.000000
vn 0.997652 0.068488 0.000000
vn -0.728163 0.541329 -0.420406
vn -0.812037 0.347555 -0.468831
vn -0.937493 0.324949 0.124556
vn -0.740114 0.519271 0.427304
vn -0.828231 0.292198 0.478178
vn -0.576616 0.324950 0.749614
vn -0.000000 0.347556 0.937659
vn 0.000000 0.541330 0.840810
vn -0.000000 1.000000 -0.000000
vn 0.576616 0.324948 0.749615
vn 0.740114 0.519271 0.427305
vn 0.828230 0.292196 0.478180
vn 0.937494 0.324949 0.124555
vn 0.812037 0.347555 -0.468830
vn 0.728163 0.541330 -0.420405
vn 0.360877 0.324950 -0.874171
vn 0.000000 0.519271 -0.854610
vn 0.000000 0.292199 -0.956358
vn -0.360877 0.324950 -0.874172
s 1
g Seta4 GRP_Setas_02
usemtl lambert2SG
f 2/24/1 7/25/2 6/26/3 1/27/4
f 8/20/5 7/21/2 2/22/1 3/23/6
f 9/30/7 8/20/5 3/23/6 4/31/8
f 10/28/9 9/30/7 4/31/8 5/29/10
f 6/26/3 10/28/9 5/29/10 1/27/4
s 2
f 21/1/11 16/2/12 18/3/13 22/4/14
f 18/3/13 11/5/15 19/6/16 22/4/14
f 19/6/16 14/7/17 20/8/18 22/4/14
f 20/8/18 17/9/19 21/1/11 22/4/14
f 20/8/18 14/7/17 23/10/20 26/11/21
f 23/10/20 12/12/22 24/13/23 26/11/21
f 24/13/23 15/14/24 25/15/25 26/11/21
f 25/15/25 17/9/19 20/8/18 26/11/21
f 25/15/25 15/14/24 27/16/26 29/17/27
f 27/16/26 13/18/28 28/19/29 29/17/27
f 28/19/29 16/2/12 21/1/11 29/17/27
f 21/1/11 17/9/19 25/15/25 29/17/27
g default
v -1.302497 0.000000 -0.214834
v -1.810354 0.000000 -0.049822
v -1.810354 0.000000 0.484170
v -1.302497 0.000000 0.649183
v -0.988625 0.000000 0.217174
v -1.343587 2.535464 -0.031820
v -1.636296 2.535464 0.063287
v -1.636296 2.535464 0.371060
v -1.343587 2.535464 0.466168
v -1.162682 2.535464 0.217174
v -2.215727 1.461496 0.666733
v -0.658412 1.461496 0.666733
v -1.437069 1.461496 -0.681943
v -1.437069 1.461496 1.116291
v -0.658412 1.461496 -0.232385
v -2.215727 1.461496 -0.232384
v -1.437069 2.951476 0.217174
v -2.336188 1.461496 0.217174
v -1.886628 1.461496 0.995835
v -1.437069 2.570144 0.777564
v -1.922382 2.570144 -0.063021
v -1.922382 2.570144 0.497367
v -0.987509 1.461496 0.995832
v -0.537950 1.461496 0.217174
v -0.951757 2.570144 -0.063020
v -0.951757 2.570144 0.497370
v -0.987509 1.461496 -0.561485
v -1.886628 1.461496 -0.561485
v -1.437069 2.570144 -0.343215
vt 0.253257 0.679893
vt 0.082865 0.778269
vt 0.030146 0.581517
vt 0.253257 0.483142
vt 0.082865 0.384766
vt 0.226897 0.240734
vt 0.423649 0.188014
vt 0.423649 0.384766
vt 0.423649 0.581517
vt 0.620400 0.240734
vt 0.594040 0.483142
vt 0.764432 0.384766
vt 0.817151 0.581517
vt 0.764432 0.778269
vt 0.594040 0.679893
vt 0.620400 0.922301
vt 0.423649 0.778269
vt 0.423649 0.975020
vt 0.226897 0.922301
vt 0.887273 0.036496
vt 0.922458 0.031702
vt 0.975696 0.319678
vt 0.914676 0.328267
vt 0.725672 0.320150
vt 0.778324 0.031662
vt 0.811888 0.035436
vt 0.783906 0.326699
vt 0.832631 0.037769
vt 0.819897 0.330746
vt 0.853499 0.037245
vt 0.856103 0.329837
vn -0.807286 0.081495 -0.584506
vn -0.805422 0.081481 -0.587075
vn 0.310558 0.073441 -0.947713
vn 0.305670 0.073476 -0.949298
vn -0.805422 0.081482 0.587075
vn -0.807286 0.081495 0.584506
vn 0.310558 0.073441 0.947713
vn 0.305670 0.073476 0.949298
vn 0.997652 0.068488 0.000000
vn 0.997652 0.068488 0.000000
vn -0.728163 0.541329 -0.420406
vn -0.812037 0.347555 -0.468831
vn -0.937493 0.324949 0.124556
vn -0.740114 0.519271 0.427304
vn -0.828231 0.292198 0.478179
vn -0.576616 0.324950 0.749614
vn -0.000000 0.347556 0.937660
vn 0.000000 0.541330 0.840810
vn -0.000000 1.000000 0.000000
vn 0.576616 0.324948 0.749615
vn 0.740114 0.519271 0.427305
vn 0.828230 0.292196 0.478180
vn 0.937494 0.324949 0.124555
vn 0.812037 0.347555 -0.468830
vn 0.728163 0.541330 -0.420405
vn 0.360877 0.324950 -0.874171
vn 0.000000 0.519271 -0.854610
vn 0.000000 0.292199 -0.956358
vn -0.360876 0.324949 -0.874172
s 1
g GRP_Setas_02 Seta5
usemtl lambert2SG
f 31/55/30 36/56/31 35/57/32 30/58/33
f 37/51/34 36/52/31 31/53/30 32/54/35
f 38/61/36 37/51/34 32/54/35 33/62/37
f 39/59/38 38/61/36 33/62/37 34/60/39
f 35/57/32 39/59/38 34/60/39 30/58/33
s 2
f 50/32/40 45/33/41 47/34/42 51/35/43
f 47/34/42 40/36/44 48/37/45 51/35/43
f 48/37/45 43/38/46 49/39/47 51/35/43
f 49/39/47 46/40/48 50/32/40 51/35/43
f 49/39/47 43/38/46 52/41/49 55/42/50
f 52/41/49 41/43/51 53/44/52 55/42/50
f 53/44/52 44/45/53 54/46/54 55/42/50
f 54/46/54 46/40/48 49/39/47 55/42/50
f 54/46/54 44/45/53 56/47/55 58/48/56
f 56/47/55 42/49/57 57/50/58 58/48/56
f 57/50/58 45/33/41 50/32/40 58/48/56
f 50/32/40 46/40/48 54/46/54 58/48/56
g default
v 0.326236 0.000000 1.241779
v -0.065718 0.000000 1.369132
v -0.065718 0.000000 1.781257
v 0.326236 0.000000 1.908611
v 0.568476 0.000000 1.575194
v 0.294524 1.956824 1.383026
v 0.068616 1.956824 1.456428
v 0.068616 1.956824 1.693961
v 0.294524 1.956824 1.767363
v 0.434142 1.956824 1.575194
v -0.378578 1.127955 1.922155
v 0.823329 1.127955 1.922155
v 0.222376 1.127955 0.881272
v 0.222376 1.127955 2.269116
v 0.823329 1.127955 1.228233
v -0.378578 1.127955 1.228234
v 0.222376 2.277894 1.575194
v -0.471547 1.127955 1.575194
v -0.124585 1.127955 2.176151
v 0.222376 1.983590 2.007693
v -0.152179 1.983590 1.358945
v -0.152179 1.983590 1.791442
v 0.569337 1.127955 2.176148
v 0.916299 1.127955 1.575194
v 0.596931 1.983590 1.358945
v 0.596931 1.983590 1.791444
v 0.569338 1.127955 0.974240
v -0.124586 1.127955 0.974240
v 0.222376 1.983590 1.142697
vt 0.253257 0.679893
vt 0.082865 0.778269
vt 0.030146 0.581517
vt 0.253257 0.483142
vt 0.082865 0.384766
vt 0.226897 0.240734
vt 0.423649 0.188014
vt 0.423649 0.384766
vt 0.423649 0.581517
vt 0.620400 0.240734
vt 0.594040 0.483142
vt 0.764432 0.384766
vt 0.817151 0.581517
vt 0.764432 0.778269
vt 0.594040 0.679893
vt 0.620400 0.922301
vt 0.423649 0.778269
vt 0.423649 0.975020
vt 0.226897 0.922301
vt 0.887273 0.036496
vt 0.922458 0.031702
vt 0.975696 0.319678
vt 0.914676 0.328267
vt 0.725672 0.320150
vt 0.778324 0.031662
vt 0.811888 0.035436
vt 0.783906 0.326699
vt 0.832631 0.037769
vt 0.819897 0.330746
vt 0.853499 0.037245
vt 0.856103 0.329837
vn -0.807286 0.081495 -0.584507
vn -0.805422 0.081481 -0.587075
vn 0.310558 0.073441 -0.947713
vn 0.305669 0.073476 -0.949299
vn -0.805422 0.081481 0.587074
vn -0.807286 0.081495 0.584506
vn 0.310559 0.073441 0.947713
vn 0.305670 0.073476 0.949298
vn 0.997652 0.068488 0.000000
vn 0.997652 0.068488 0.000000
vn -0.728163 0.541329 -0.420406
vn -0.812037 0.347555 -0.468831
vn -0.937493 0.324949 0.124557
vn -0.740114 0.519271 0.427304
vn -0.828230 0.292198 0.478179
vn -0.576616 0.324950 0.749614
vn -0.000000 0.347556 0.937659
vn 0.000000 0.541330 0.840810
vn -0.000000 1.000000 -0.000000
vn 0.576616 0.324948 0.749615
vn 0.740114 0.519271 0.427305
vn 0.828230 0.292196 0.478180
vn 0.937494 0.324949 0.124555
vn 0.812037 0.347555 -0.468830
vn 0.728163 0.541330 -0.420405
vn 0.360877 0.324950 -0.874171
vn 0.000000 0.519271 -0.854610
vn 0.000000 0.292199 -0.956358
vn -0.360876 0.324949 -0.874172
s 1
g GRP_Setas_02 Seta6
usemtl lambert2SG
f 60/86/59 65/87/60 64/88/61 59/89/62
f 66/82/63 65/83/60 60/84/59 61/85/64
f 67/92/65 66/82/63 61/85/64 62/93/66
f 68/90/67 67/92/65 62/93/66 63/91/68
f 64/88/61 68/90/67 63/91/68 59/89/62
s 2
f 79/63/69 74/64/70 76/65/71 80/66/72
f 76/65/71 69/67/73 77/68/74 80/66/72
f 77/68/74 72/69/75 78/70/76 80/66/72
f 78/70/76 75/71/77 79/63/69 80/66/72
f 78/70/76 72/69/75 81/72/78 84/73/79
f 81/72/78 70/74/80 82/75/81 84/73/79
f 82/75/81 73/76/82 83/77/83 84/73/79
f 83/77/83 75/71/77 78/70/76 84/73/79
f 83/77/83 73/76/82 85/78/84 87/79/85
f 85/78/84 71/80/86 86/81/87 87/79/85
f 86/81/87 74/64/70 79/63/69 87/79/85
f 79/63/69 75/71/77 83/77/83 87/79/85
g default
v -0.406429 -0.000000 -1.724356
v -0.670593 -0.000000 -1.638524
v -0.670593 -0.000000 -1.360766
v -0.406429 -0.000000 -1.274934
v -0.243167 -0.000000 -1.499645
v -0.427802 1.318835 -1.629160
v -0.580057 1.318835 -1.579690
v -0.580057 1.318835 -1.419600
v -0.427802 1.318835 -1.370130
v -0.333704 1.318835 -1.499645
v -0.881450 0.760205 -1.265805
v -0.071405 0.760205 -1.265805
v -0.476428 0.760205 -1.967326
v -0.476427 0.760205 -1.031965
v -0.071405 0.760205 -1.733485
v -0.881450 0.760205 -1.733485
v -0.476427 1.535226 -1.499645
v -0.944109 0.760205 -1.499645
v -0.710268 0.760205 -1.094620
v -0.476427 1.336874 -1.208155
v -0.728865 1.336874 -1.645390
v -0.728865 1.336874 -1.353901
v -0.242587 0.760205 -1.094622
v -0.008746 0.760205 -1.499645
v -0.223990 1.336874 -1.645390
v -0.223990 1.336874 -1.353900
v -0.242587 0.760205 -1.904669
v -0.710268 0.760205 -1.904669
v -0.476428 1.336874 -1.791134
vt 0.253257 0.679893
vt 0.082865 0.778269
vt 0.030146 0.581517
vt 0.253257 0.483142
vt 0.082865 0.384766
vt 0.226897 0.240734
vt 0.423649 0.188014
vt 0.423649 0.384766
vt 0.423649 0.581517
vt 0.620400 0.240734
vt 0.594040 0.483142
vt 0.764432 0.384766
vt 0.817151 0.581517
vt 0.764432 0.778269
vt 0.594040 0.679893
vt 0.620400 0.922301
vt 0.423649 0.778269
vt 0.423649 0.975020
vt 0.226897 0.922301
vt 0.887273 0.036496
vt 0.922458 0.031702
vt 0.975696 0.319678
vt 0.914676 0.328267
vt 0.725672 0.320150
vt 0.778324 0.031662
vt 0.811888 0.035436
vt 0.783906 0.326699
vt 0.832631 0.037769
vt 0.819897 0.330746
vt 0.853499 0.037245
vt 0.856103 0.329837
vn -0.807286 0.081495 -0.584507
vn -0.805422 0.081481 -0.587075
vn 0.310558 0.073441 -0.947713
vn 0.305670 0.073476 -0.949298
vn -0.805422 0.081482 0.587074
vn -0.807286 0.081495 0.584506
vn 0.310558 0.073441 0.947713
vn 0.305670 0.073476 0.949298
vn 0.997652 0.068488 0.000000
vn 0.997652 0.068488 0.000000
vn -0.728163 0.541329 -0.420406
vn -0.812037 0.347555 -0.468831
vn -0.937493 0.324949 0.124557
vn -0.740114 0.519271 0.427304
vn -0.828231 0.292198 0.478179
vn -0.576616 0.324950 0.749614
vn -0.000000 0.347556 0.937659
vn 0.000000 0.541330 0.840810
vn -0.000000 1.000000 0.000000
vn 0.576616 0.324948 0.749615
vn 0.740114 0.519271 0.427305
vn 0.828230 0.292196 0.478180
vn 0.937494 0.324949 0.124555
vn 0.812037 0.347555 -0.468830
vn 0.728163 0.541330 -0.420405
vn 0.360877 0.324950 -0.874171
vn 0.000000 0.519271 -0.854610
vn 0.000000 0.292199 -0.956358
vn -0.360877 0.324950 -0.874172
s 1
g GRP_Setas_02 Seta7
usemtl lambert2SG
f 89/117/88 94/118/89 93/119/90 88/120/91
f 95/113/92 94/114/89 89/115/88 90/116/93
f 96/123/94 95/113/92 90/116/93 91/124/95
f 97/121/96 96/123/94 91/124/95 92/122/97
f 93/119/90 97/121/96 92/122/97 88/120/91
s 2
f 108/94/98 103/95/99 105/96/100 109/97/101
f 105/96/100 98/98/102 106/99/103 109/97/101
f 106/99/103 101/100/104 107/101/105 109/97/101
f 107/101/105 104/102/106 108/94/98 109/97/101
f 107/101/105 101/100/104 110/103/107 113/104/108
f 110/103/107 99/105/109 111/106/110 113/104/108
f 111/106/110 102/107/111 112/108/112 113/104/108
f 112/108/112 104/102/106 107/101/105 113/104/108
f 112/108/112 102/107/111 114/109/113 116/110/114
f 114/109/113 100/111/115 115/112/116 116/110/114
f 115/112/116 103/95/99 108/94/98 116/110/114
f 108/94/98 104/102/106 112/108/112 116/110/114
