# This file uses centimeters as units for non-parametric coordinates.

mtllib Mushrooms_01.mtl
g default
v -2.153409 0.000000 -2.676914
v -2.749403 0.000000 -2.483264
v -2.749403 0.000000 -1.856599
v -2.153409 0.000000 -1.662949
v -1.785065 0.000000 -2.169931
v -2.643979 2.366191 -2.691971
v -2.990726 2.398668 -2.596215
v -3.005115 2.425098 -2.236284
v -2.667259 2.408957 -2.109592
v -2.444065 2.372548 -2.391222
v -4.176341 2.454175 -1.668694
v -1.433013 2.247435 -1.543852
v -2.709672 2.176280 -3.982960
v -2.836345 2.408980 -0.814044
v -1.369676 2.131085 -3.128310
v -4.113004 2.337825 -3.253152
v -2.719060 2.979348 -2.446773
v -4.356869 2.411991 -2.470580
v -3.619790 2.453073 -1.062359
v -2.770234 2.833299 -1.564118
v -3.469541 2.794324 -2.900173
v -3.504235 2.858056 -2.032264
v -2.035929 2.333711 -0.990282
v -1.189148 2.173269 -2.326425
v -1.966846 2.681079 -2.831789
v -2.001539 2.744811 -1.963881
v -1.926227 2.132187 -3.734644
v -3.510088 2.251549 -3.806721
v -2.700847 2.705836 -3.299935
vt 0.253257 0.679893
vt 0.082865 0.778269
vt 0.030146 0.581517
vt 0.253257 0.483142
vt 0.082865 0.384766
vt 0.226897 0.240734
vt 0.423649 0.188014
vt 0.423649 0.384766
vt 0.423649 0.581517
vt 0.620400 0.240734
vt 0.594040 0.483142
vt 0.764432 0.384766
vt 0.817151 0.581517
vt 0.764432 0.778269
vt 0.594040 0.679893
vt 0.620400 0.922301
vt 0.423649 0.778269
vt 0.423649 0.975020
vt 0.226897 0.922301
vt 0.887273 0.036496
vt 0.922458 0.031702
vt 0.975696 0.319678
vt 0.914676 0.328267
vt 0.725672 0.320150
vt 0.778324 0.031662
vt 0.811888 0.035436
vt 0.783906 0.326699
vt 0.832631 0.037769
vt 0.819897 0.330746
vt 0.853499 0.037245
vt 0.856103 0.329837
vn -0.796573 -0.107801 -0.594853
vn -0.829031 -0.109205 -0.548436
vn 0.242107 0.043528 -0.969273
vn 0.391620 0.075861 -0.916995
vn -0.853256 -0.008378 0.521425
vn -0.775285 0.016282 0.631401
vn 0.209323 0.223042 0.952070
vn 0.341234 0.242445 0.908174
vn 0.963670 0.266972 0.008120
vn 0.961672 0.270189 0.046747
vn -0.250317 0.929674 -0.270273
vn -0.350482 0.877450 -0.327482
vn -0.448856 0.892735 -0.039410
vn -0.289022 0.949312 0.123584
vn -0.424736 0.883728 0.196532
vn -0.244959 0.904099 0.350143
vn 0.048052 0.899662 0.433934
vn 0.056937 0.946799 0.316749
vn 0.078127 0.994490 -0.069904
vn 0.344788 0.859655 0.376981
vn 0.415397 0.896226 0.155640
vn 0.532626 0.811580 0.240099
vn 0.579031 0.815272 0.007367
vn 0.505902 0.812912 -0.288510
vn 0.409921 0.879918 -0.240227
vn 0.304581 0.799976 -0.516981
vn 0.087582 0.877955 -0.470663
vn 0.087100 0.786749 -0.611098
vn -0.133558 0.832994 -0.536920
s 1
g Seta2 GRP_Setas_01
usemtl lambert2SG
f 2/24/1 7/25/2 6/26/3 1/27/4
f 8/20/5 7/21/2 2/22/1 3/23/6
f 9/30/7 8/20/5 3/23/6 4/31/8
f 10/28/9 9/30/7 4/31/8 5/29/10
f 6/26/3 10/28/9 5/29/10 1/27/4
s 2
f 21/1/11 16/2/12 18/3/13 22/4/14
f 18/3/13 11/5/15 19/6/16 22/4/14
f 19/6/16 14/7/17 20/8/18 22/4/14
f 20/8/18 17/9/19 21/1/11 22/4/14
f 20/8/18 14/7/17 23/10/20 26/11/21
f 23/10/20 12/12/22 24/13/23 26/11/21
f 24/13/23 15/14/24 25/15/25 26/11/21
f 25/15/25 17/9/19 20/8/18 26/11/21
f 25/15/25 15/14/24 27/16/26 29/17/27
f 27/16/26 13/18/28 28/19/29 29/17/27
f 28/19/29 16/2/12 21/1/11 29/17/27
f 21/1/11 17/9/19 25/15/25 29/17/27
g default
v 0.020771 0.000000 -2.346009
v -0.363574 0.000000 -2.221128
v -0.363574 0.000000 -1.817003
v 0.020771 0.000000 -1.692121
v 0.258309 0.000000 -2.019065
v 0.124906 1.889203 -2.469407
v -0.096616 1.900397 -2.398306
v -0.096616 1.936620 -2.168217
v 0.124906 1.947814 -2.097116
v 0.261815 1.918508 -2.283262
v -0.761742 1.598818 -1.756070
v 0.870059 1.598818 -1.756070
v 0.054159 1.379044 -3.152057
v 0.054159 1.672076 -1.290741
v 0.870059 1.452302 -2.686728
v -0.761742 1.452302 -2.686728
v 0.054159 2.258013 -2.336711
v -0.887962 1.525560 -2.221398
v -0.416901 1.652447 -1.415426
v 0.054159 2.207092 -1.760125
v -0.432245 2.076072 -2.592351
v -0.432245 2.163418 -2.037534
v 0.525219 1.652447 -1.415426
v 0.996279 1.525560 -2.221398
v 0.540563 2.076072 -2.592351
v 0.540563 2.163419 -2.037534
v 0.525219 1.398674 -3.027372
v -0.416901 1.398674 -3.027372
v 0.054159 2.032398 -2.869760
vt 0.253257 0.679893
vt 0.082865 0.778269
vt 0.030146 0.581517
vt 0.253257 0.483142
vt 0.082865 0.384766
vt 0.226897 0.240734
vt 0.423649 0.188014
vt 0.423649 0.384766
vt 0.423649 0.581517
vt 0.620400 0.240734
vt 0.594040 0.483142
vt 0.764432 0.384766
vt 0.817151 0.581517
vt 0.764432 0.778269
vt 0.594040 0.679893
vt 0.620400 0.922301
vt 0.423649 0.778269
vt 0.423649 0.975020
vt 0.226897 0.922301
vt 0.887273 0.036496
vt 0.922458 0.031702
vt 0.975696 0.319678
vt 0.914676 0.328267
vt 0.725672 0.320150
vt 0.778324 0.031662
vt 0.811888 0.035436
vt 0.783906 0.326699
vt 0.832631 0.037769
vt 0.819897 0.330746
vt 0.853499 0.037245
vt 0.856103 0.329837
vn -0.840981 0.067021 -0.536897
vn -0.801849 0.056222 -0.594876
vn 0.337849 -0.079712 -0.937819
vn 0.299116 -0.078453 -0.950986
vn -0.778781 0.214873 0.589347
vn -0.776000 0.215128 0.592911
vn 0.326391 0.176144 0.928678
vn 0.260584 0.183653 0.947823
vn 0.999897 -0.000272 0.014321
vn 0.998304 0.005738 0.057928
vn -0.548849 0.714841 -0.433320
vn -0.690951 0.533494 -0.487823
vn -0.812385 0.583088 -0.006242
vn -0.554436 0.808637 0.196740
vn -0.731900 0.593780 0.334287
vn -0.479384 0.672786 0.563516
vn 0.000000 0.719611 0.694378
vn 0.000000 0.862681 0.505748
vn -0.000000 0.987833 -0.155518
vn 0.479384 0.672786 0.563516
vn 0.554436 0.808638 0.196740
vn 0.731900 0.593780 0.334287
vn 0.812385 0.583088 -0.006242
vn 0.690950 0.533494 -0.487823
vn 0.548849 0.714841 -0.433320
vn 0.333000 0.453960 -0.826457
vn -0.000000 0.659293 -0.751886
vn -0.000000 0.396634 -0.917977
vn -0.333001 0.453960 -0.826457
s 1
g GRP_Setas_01 Seta3
usemtl lambert2SG
f 31/55/30 36/56/31 35/57/32 30/58/33
f 37/51/34 36/52/31 31/53/30 32/54/35
f 38/61/36 37/51/34 32/54/35 33/62/37
f 39/59/38 38/61/36 33/62/37 34/60/39
f 35/57/32 39/59/38 34/60/39 30/58/33
s 2
f 50/32/40 45/33/41 47/34/42 51/35/43
f 47/34/42 40/36/44 48/37/45 51/35/43
f 48/37/45 43/38/46 49/39/47 51/35/43
f 49/39/47 46/40/48 50/32/40 51/35/43
f 49/39/47 43/38/46 52/41/49 55/42/50
f 52/41/49 41/43/51 53/44/52 55/42/50
f 53/44/52 44/45/53 54/46/54 55/42/50
f 54/46/54 46/40/48 49/39/47 55/42/50
f 54/46/54 44/45/53 56/47/55 58/48/56
f 56/47/55 42/49/57 57/50/58 58/48/56
f 57/50/58 45/33/41 50/32/40 58/48/56
f 50/32/40 46/40/48 54/46/54 58/48/56
g default
v 0.239366 0.000000 -0.768426
v -0.663972 0.000000 -0.474913
v -0.663972 0.000000 0.474913
v 0.239366 0.000000 0.768426
v 0.797660 0.000000 0.000000
v 0.636877 4.429461 -0.425184
v 0.140697 4.557558 -0.232591
v 0.180723 4.620101 0.309794
v 0.701640 4.530659 0.452414
v 0.983559 4.412836 -0.001828
v -1.492501 4.626924 1.388218
v 2.496343 3.773777 1.192235
v 0.234186 3.781994 -2.337801
v 0.591166 4.339803 2.499569
v 2.317853 3.494873 -1.226450
v -1.670991 4.348019 -1.030466
v 0.669609 5.299340 -0.080884
v -1.890284 4.553463 0.194035
v -0.584228 4.548718 2.232102
v 0.699837 5.130637 1.268717
v -0.561574 5.143247 -0.638217
v -0.465059 5.294061 0.669648
v 1.718733 4.056155 2.118951
v 2.715637 3.568334 -0.032267
v 1.671701 4.665588 -0.747945
v 1.768216 4.816401 0.559921
v 1.409580 3.573078 -2.070334
v -0.893381 4.065642 -1.957182
v 0.506806 4.829011 -1.347014
vt 0.253257 0.679893
vt 0.082865 0.778269
vt 0.030146 0.581517
vt 0.253257 0.483142
vt 0.082865 0.384766
vt 0.226897 0.240734
vt 0.423649 0.188014
vt 0.423649 0.384766
vt 0.423649 0.581517
vt 0.620400 0.240734
vt 0.594040 0.483142
vt 0.764432 0.384766
vt 0.817151 0.581517
vt 0.764432 0.778269
vt 0.594040 0.679893
vt 0.620400 0.922301
vt 0.423649 0.778269
vt 0.423649 0.975020
vt 0.226897 0.922301
vt 0.887273 0.036496
vt 0.922458 0.031702
vt 0.975696 0.319678
vt 0.914676 0.328267
vt 0.725672 0.320150
vt 0.778324 0.031662
vt 0.811888 0.035436
vt 0.783906 0.326699
vt 0.832631 0.037769
vt 0.819897 0.330746
vt 0.853499 0.037245
vt 0.856103 0.329837
vn -0.822463 0.175190 -0.541168
vn -0.841475 0.177104 -0.510445
vn 0.269197 0.049159 -0.961830
vn 0.248785 0.051533 -0.967187
vn -0.771920 0.163652 0.614295
vn -0.802897 0.167426 0.572124
vn 0.278877 0.038115 0.959570
vn 0.278008 0.038213 0.959818
vn 0.998855 -0.042647 0.021688
vn 0.998915 -0.042332 -0.019391
vn -0.239013 0.916650 -0.320354
vn -0.373287 0.847558 -0.377230
vn -0.457394 0.889187 -0.011698
vn -0.222942 0.963515 0.148106
vn -0.394770 0.882674 0.255036
vn -0.155746 0.896303 0.415192
vn 0.205838 0.851671 0.481963
vn 0.212570 0.915229 0.342302
vn 0.201498 0.971238 -0.126866
vn 0.546150 0.746179 0.380706
vn 0.609561 0.785457 0.107202
vn 0.742632 0.639403 0.199152
vn 0.777153 0.625139 -0.072355
vn 0.649516 0.628797 -0.427484
vn 0.561111 0.745517 -0.359666
vn 0.368978 0.648363 -0.665944
vn 0.141941 0.798141 -0.585511
vn 0.106840 0.668582 -0.735924
vn -0.132899 0.755706 -0.641285
s 1
g GRP_Setas_01 Seta1
usemtl lambert2SG
f 60/86/59 65/87/60 64/88/61 59/89/62
f 66/82/63 65/83/60 60/84/59 61/85/64
f 67/92/65 66/82/63 61/85/64 62/93/66
f 68/90/67 67/92/65 62/93/66 63/91/68
f 64/88/61 68/90/67 63/91/68 59/89/62
s 2
f 79/63/69 74/64/70 76/65/71 80/66/72
f 76/65/71 69/67/73 77/68/74 80/66/72
f 77/68/74 72/69/75 78/70/76 80/66/72
f 78/70/76 75/71/77 79/63/69 80/66/72
f 78/70/76 72/69/75 81/72/78 84/73/79
f 81/72/78 70/74/80 82/75/81 84/73/79
f 82/75/81 73/76/82 83/77/83 84/73/79
f 83/77/83 75/71/77 78/70/76 84/73/79
f 83/77/83 73/76/82 85/78/84 87/79/85
f 85/78/84 71/80/86 86/81/87 87/79/85
f 86/81/87 74/64/70 79/63/69 87/79/85
f 79/63/69 75/71/77 83/77/83 87/79/85
