# This file uses centimeters as units for non-parametric coordinates.

mtllib Tomb_01.mtl
g default
v -6.489374 2.831108 2.012120
v 6.489374 2.831108 2.012120
v 6.489374 2.831108 -2.012120
v -6.489374 2.831108 -2.012120
v -6.504386 18.262596 1.903726
v 6.504386 18.262596 1.903726
v 6.504386 18.262596 -1.903726
v -6.504386 18.262596 -1.903726
v -3.244096 2.831108 2.011598
v -3.244096 19.207743 1.523827
v -3.244096 19.207743 -1.523827
v -3.244096 2.831108 -2.011598
v -0.000003 2.831108 2.011863
v -0.000003 19.654764 1.338908
v -0.000003 19.654764 -1.338908
v -0.000003 2.831108 -2.011863
v 3.244094 2.831108 2.011598
v 3.244094 19.207743 1.523827
v 3.244094 19.207743 -1.523827
v 3.244094 2.831108 -2.011598
v -5.419667 4.270329 0.929570
v -2.709834 4.270329 0.929570
v -2.702779 17.845005 0.708988
v -5.443757 17.061567 0.858252
v -0.000003 4.270329 0.929570
v -0.000003 18.215542 0.641712
v 2.709832 4.270329 0.929570
v 2.702778 17.845005 0.708988
v 5.419667 4.270329 0.929570
v 5.443757 17.061567 0.858252
v -2.702779 17.845005 -0.708988
v -2.709834 4.270329 -0.929570
v -5.419667 4.270329 -0.929570
v -5.443757 17.061567 -0.858252
v -0.000003 18.215542 -0.641712
v -0.000003 4.270329 -0.929570
v 2.702778 17.845005 -0.708988
v 2.709832 4.270329 -0.929570
v 5.419667 4.270329 -0.929570
v 5.443757 17.061567 -0.858252
v -6.994877 10.894891 2.235209
v -6.994877 10.894891 -2.235209
v -5.798089 10.894892 -1.021660
v -2.899044 10.894896 -1.021660
v -0.000003 10.894897 -1.021274
v 2.899043 10.894896 -1.021660
v 5.798089 10.894892 -1.021660
v 6.994877 10.894891 -2.235209
v 6.994877 10.894891 2.235209
v 5.798089 10.894892 1.021660
v 2.899043 10.894896 1.021660
v -0.000003 10.894897 1.021274
v -2.899044 10.894896 1.021660
v -5.798089 10.894892 1.021660
v -2.823700 14.296499 -0.904632
v -0.000003 14.296502 -0.867878
v 2.823699 14.296499 -0.904632
v 5.647401 14.296494 -0.970853
v 6.813085 14.296499 -2.152362
v 6.813085 14.296499 2.152362
v 5.647401 14.296494 0.970853
v 2.823699 14.296499 0.904632
v -0.000003 14.296502 0.867878
v -2.823700 14.296499 0.904632
v -5.647401 14.296494 0.970853
v -6.813085 14.296499 2.152362
v -6.813085 14.296499 -2.152362
v -5.647401 14.296494 -0.970853
v -6.787933 7.222801 2.143881
v -6.787933 7.222801 -2.143881
v -5.626552 7.222809 -0.979916
v -2.813276 7.222811 -0.979916
v -0.000003 7.222812 -0.979916
v 2.813274 7.222811 -0.979916
v 5.626552 7.222809 -0.979916
v 6.787933 7.222801 -2.143881
v 6.787933 7.222801 2.143881
v 5.626552 7.222809 0.979916
v 2.813274 7.222811 0.979916
v -0.000003 7.222812 0.979916
v -2.813276 7.222811 0.979916
v -5.626552 7.222809 0.979916
v -8.998108 0.168893 2.860524
v 8.998108 0.168893 2.860524
v -8.126013 2.831108 2.519388
v 8.126013 2.831108 2.519388
v -8.126013 2.831108 -2.519388
v 8.126013 2.831108 -2.519388
v -8.998108 0.168893 -2.860524
v 8.998108 0.168893 -2.860524
vt 0.216981 0.874020
vt 0.217303 0.763090
vt 0.338967 0.767377
vt 0.339162 0.883355
vt 0.342139 0.417451
vt 0.340462 0.533417
vt 0.218753 0.536149
vt 0.219848 0.425223
vt 0.338851 0.651469
vt 0.217225 0.651572
vt 0.338864 0.649313
vt 0.217250 0.647657
vt 0.338772 0.535561
vt 0.217115 0.540054
vt 0.337304 0.765211
vt 0.215715 0.759164
vt 0.338770 0.419583
vt 0.216605 0.429124
vt 0.213788 0.870079
vt 0.335821 0.881180
vt 0.150671 0.928065
vt 0.143348 0.785371
vt 0.840544 0.786880
vt 0.800574 0.929763
vt 0.744940 0.874571
vt 0.776299 0.762147
vt 0.338548 0.951310
vt 0.143073 0.651634
vt 0.857119 0.651031
vt 0.791320 0.651087
vt 0.143123 0.517897
vt 0.840315 0.515211
vt 0.776112 0.540052
vt 0.150205 0.375191
vt 0.338042 0.351629
vt 0.800104 0.372395
vt 0.744562 0.427682
vt 0.145089 0.512924
vt 0.154235 0.370336
vt 0.342393 0.349493
vt 0.804106 0.376942
vt 0.842247 0.520323
vt 0.777691 0.544233
vt 0.747771 0.431419
vt 0.143105 0.646647
vt 0.857085 0.656373
vt 0.791292 0.655477
vt 0.141446 0.780374
vt 0.838547 0.791968
vt 0.774666 0.766308
vt 0.146704 0.923158
vt 0.796514 0.934258
vt 0.741684 0.878266
vt 0.334225 0.949119
vt 0.493404 0.412141
vt 0.494317 0.341823
vt 0.634904 0.352163
vt 0.633427 0.420579
vt 0.631761 0.537008
vt 0.491713 0.531839
vt 0.630132 0.653281
vt 0.490050 0.651373
vt 0.628593 0.769555
vt 0.488456 0.770909
vt 0.486886 0.890608
vt 0.627087 0.885987
vt 0.626700 0.954418
vt 0.485883 0.960925
vt 0.489943 0.412086
vt 0.489839 0.341761
vt 0.630561 0.350067
vt 0.630074 0.418497
vt 0.630092 0.534939
vt 0.489984 0.531795
vt 0.630145 0.651223
vt 0.490050 0.651342
vt 0.630288 0.767507
vt 0.490186 0.770887
vt 0.490347 0.890596
vt 0.630467 0.883948
vt 0.631069 0.952377
vt 0.490361 0.960921
vt 0.120339 0.359382
vt 0.033597 0.359367
vt 0.030774 0.264486
vt 0.123196 0.264502
vt 0.033658 0.025657
vt 0.120399 0.025673
vt 0.123223 0.120554
vt 0.030801 0.120537
vt 0.028818 0.199814
vt 0.125177 0.199831
vt 0.123378 0.273257
vt 0.030591 0.273240
vt 0.125178 0.185226
vt 0.028820 0.185208
vt 0.030618 0.111783
vt 0.123406 0.111800
vt 0.035993 0.026037
vt 0.118062 0.026052
vt 0.118004 0.359003
vt 0.035935 0.358988
vt 0.851585 0.380354
vt 0.861725 0.290204
vt 0.942668 0.290249
vt 0.952708 0.380410
vt 0.866685 0.203232
vt 0.937805 0.203271
vt 0.861822 0.116254
vt 0.942765 0.116299
vt 0.851782 0.026093
vt 0.952905 0.026149
vt 0.266676 0.035880
vt 0.667793 0.038849
vt 0.647913 0.098528
vt 0.285671 0.095847
vt 0.284840 0.208156
vt 0.647081 0.210838
vt 0.666077 0.270805
vt 0.264959 0.267836
vt 0.710410 0.091387
vt 0.709466 0.218903
vt 0.222343 0.215298
vt 0.223287 0.087781
vn -0.278433 0.960456 0.000000
vn -0.219329 0.975651 0.000000
vn -0.219329 0.975651 0.000000
vn -0.278433 0.960456 0.000000
vn 0.000000 -0.017050 0.999855
vn 0.000000 -0.017050 0.999855
vn 0.000019 -0.013838 0.999904
vn 0.000000 -0.013749 0.999906
vn 0.997697 -0.067826 0.000000
vn 0.997697 -0.067826 0.000000
vn 0.998057 -0.062315 0.000000
vn 0.998057 -0.062315 0.000000
vn 0.000000 -0.013749 -0.999906
vn 0.000019 -0.013838 -0.999904
vn 0.000000 -0.017050 -0.999855
vn 0.000000 -0.017050 -0.999855
vn -0.997697 -0.067826 0.000000
vn -0.997697 -0.067826 0.000000
vn -0.998057 -0.062315 0.000000
vn -0.998057 -0.062315 0.000000
vn 0.000000 -0.013823 0.999905
vn -0.000000 -0.017050 0.999855
vn -0.000000 1.000000 0.000000
vn -0.000000 1.000000 0.000000
vn -0.000000 -0.013823 -0.999904
vn -0.000000 -0.017050 -0.999855
vn -0.000019 -0.013838 0.999904
vn -0.000000 -0.017050 0.999855
vn 0.219329 0.975651 0.000000
vn 0.219329 0.975651 0.000000
vn -0.000019 -0.013838 -0.999904
vn -0.000000 -0.017050 -0.999855
vn 0.000000 -0.013749 0.999906
vn 0.000000 -0.017050 0.999855
vn 0.278433 0.960456 0.000000
vn 0.278433 0.960456 0.000000
vn 0.000000 -0.017050 -0.999855
vn 0.000000 -0.013749 -0.999906
vn 0.382921 0.361836 0.849969
vn 0.000027 0.600989 0.799257
vn 0.000008 0.600986 0.799260
vn 0.427884 0.324468 0.843585
vn 0.167192 -0.473031 0.865037
vn 0.473391 -0.279532 0.835322
vn 0.504227 -0.250050 0.826577
vn 0.154346 -0.470201 0.868958
vn 0.704514 0.027190 0.709170
vn 0.704892 0.026949 0.708803
vn -0.000000 0.600979 0.799265
vn 0.000000 0.600979 0.799265
vn 0.000000 -0.459739 0.888054
vn 0.000000 -0.459739 0.888054
vn -0.000027 0.600989 0.799258
vn -0.000008 0.600986 0.799260
vn -0.167191 -0.473031 0.865037
vn -0.154346 -0.470202 0.868958
vn -0.382920 0.361836 0.849969
vn -0.427884 0.324468 0.843585
vn -0.704892 0.026949 0.708803
vn -0.704514 0.027190 0.709170
vn -0.473391 -0.279532 0.835322
vn -0.504227 -0.250050 0.826577
vn 0.000027 0.600989 -0.799257
vn 0.382921 0.361836 -0.849969
vn 0.427884 0.324468 -0.843585
vn 0.000008 0.600986 -0.799260
vn 0.704892 0.026949 -0.708803
vn 0.704514 0.027190 -0.709170
vn 0.473391 -0.279532 -0.835322
vn 0.167191 -0.473031 -0.865037
vn 0.154346 -0.470201 -0.868958
vn 0.504227 -0.250050 -0.826577
vn -0.000000 0.600979 -0.799265
vn 0.000000 0.600979 -0.799265
vn 0.000000 -0.459739 -0.888054
vn -0.000000 -0.459739 -0.888054
vn -0.000027 0.600989 -0.799258
vn -0.000008 0.600986 -0.799260
vn -0.167191 -0.473031 -0.865037
vn -0.154346 -0.470202 -0.868958
vn -0.382920 0.361836 -0.849969
vn -0.427884 0.324468 -0.843585
vn -0.473391 -0.279532 -0.835322
vn -0.504227 -0.250050 -0.826577
vn -0.704514 0.027190 -0.709170
vn -0.704892 0.026949 -0.708803
vn -0.999994 -0.003494 0.000000
vn -0.999994 -0.003494 0.000000
vn -0.997845 0.065613 0.000000
vn -0.997845 0.065613 0.000000
vn 0.710925 0.002216 -0.703264
vn 0.710926 0.002204 -0.703263
vn 0.707706 -0.018370 -0.706269
vn 0.707319 -0.018122 -0.706663
vn 0.020856 0.034637 -0.999182
vn 0.015918 0.041876 -0.998996
vn 0.004381 0.009459 -0.999946
vn 0.005574 0.005807 -0.999968
vn 0.000000 0.048144 -0.998840
vn -0.000000 0.013229 -0.999913
vn -0.015918 0.041876 -0.998996
vn -0.004381 0.009459 -0.999946
vn -0.005574 0.005807 -0.999968
vn -0.020856 0.034637 -0.999182
vn -0.707319 -0.018122 -0.706663
vn -0.707706 -0.018370 -0.706269
vn -0.710926 0.002204 -0.703263
vn -0.710925 0.002216 -0.703264
vn 0.999994 -0.003494 0.000000
vn 0.999994 -0.003494 0.000000
vn 0.997845 0.065613 0.000000
vn 0.997845 0.065613 0.000000
vn -0.710925 0.002216 0.703264
vn -0.710926 0.002204 0.703263
vn -0.707706 -0.018370 0.706269
vn -0.707319 -0.018122 0.706663
vn -0.020856 0.034637 0.999182
vn -0.015918 0.041876 0.998996
vn -0.004381 0.009459 0.999946
vn -0.005574 0.005807 0.999968
vn 0.000000 0.048144 0.998840
vn -0.000000 0.013229 0.999913
vn 0.015918 0.041876 0.998996
vn 0.004381 0.009459 0.999946
vn 0.005574 0.005807 0.999968
vn 0.020856 0.034637 0.999182
vn 0.707319 -0.018122 0.706663
vn 0.707706 -0.018370 0.706269
vn 0.710926 0.002204 0.703263
vn 0.710925 0.002216 0.703264
vn -0.000000 0.056153 -0.998422
vn 0.021471 0.052720 -0.998379
vn -0.021471 0.052720 -0.998379
vn -0.032030 0.047097 -0.998377
vn 0.996985 0.077600 0.000000
vn 0.996985 0.077600 0.000000
vn -0.021471 0.052720 0.998379
vn -0.032030 0.047097 0.998377
vn 0.000000 0.056153 0.998422
vn 0.021471 0.052720 0.998379
vn 0.032030 0.047097 0.998377
vn -0.996985 0.077600 0.000000
vn -0.996985 0.077600 0.000000
vn 0.032030 0.047097 -0.998377
vn 0.000000 0.127101 0.991890
vn 0.000000 0.127101 0.991890
vn 0.000000 0.127101 0.991890
vn 0.000000 0.127101 0.991890
vn 0.000000 0.127101 -0.991890
vn 0.000000 0.127101 -0.991890
vn 0.000000 0.127101 -0.991890
vn 0.000000 0.127101 -0.991890
vn 0.950310 0.311305 0.000000
vn 0.950310 0.311305 0.000000
vn 0.950310 0.311305 0.000000
vn 0.950310 0.311305 0.000000
vn -0.950310 0.311305 0.000000
vn -0.950310 0.311305 0.000000
vn -0.950310 0.311305 0.000000
vn -0.950310 0.311305 0.000000
vn 0.000000 1.000000 0.000000
vn 0.000000 1.000000 0.000000
vn 0.000000 1.000000 0.000000
vn 0.000000 1.000000 0.000000
s 1
g Tomb_01
usemtl lambert2SG
f 5/103/1 10/104/2 11/105/3 8/106/4
s 2
f 21/1/5 22/2/6 81/3/7 82/4/8
s 3
f 2/83/9 3/84/10 76/85/11 77/86/12
s 4
f 71/5/13 72/6/14 32/7/15 33/8/16
s 5
f 4/87/17 1/88/18 69/89/19 70/90/20
s 2
f 80/9/21 81/3/7 22/2/6 25/10/22
s 1
f 11/105/3 10/104/2 14/107/23 15/108/24
s 4
f 72/6/14 73/11/25 36/12/26 32/7/15
s 2
f 79/13/27 80/9/21 25/10/22 27/14/28
s 1
f 15/108/24 14/107/23 18/109/29 19/110/30
s 4
f 73/11/25 74/15/31 38/16/32 36/12/26
s 2
f 78/17/33 79/13/27 27/14/28 29/18/34
s 1
f 19/110/30 18/109/29 6/111/35 7/112/36
s 4
f 39/19/37 38/16/32 74/15/31 75/20/38
s 6
f 1/21/39 9/22/40 22/2/41 21/1/42
f 10/23/43 5/24/44 24/25/45 23/26/46
f 82/4/47 69/27/48 1/21/39 21/1/42
f 9/22/40 13/28/49 25/10/50 22/2/41
f 14/29/51 10/23/43 23/26/46 26/30/52
f 13/28/49 17/31/53 27/14/54 25/10/50
f 18/32/55 14/29/51 26/30/52 28/33/56
f 17/31/53 2/34/57 29/18/58 27/14/54
f 2/34/57 77/35/59 78/17/60 29/18/58
f 6/36/61 18/32/55 28/33/56 30/37/62
s 8
f 12/38/63 4/39/64 33/8/65 32/7/66
f 4/39/64 70/40/67 71/5/68 33/8/65
f 8/41/69 11/42/70 31/43/71 34/44/72
f 16/45/73 12/38/63 32/7/66 36/12/74
f 11/42/70 15/46/75 35/47/76 31/43/71
f 20/48/77 16/45/73 36/12/74 38/16/78
f 15/46/75 19/49/79 37/50/80 35/47/76
f 3/51/81 20/48/77 38/16/78 39/19/82
f 19/49/79 7/52/83 40/53/84 37/50/80
f 75/20/85 76/54/86 3/51/81 39/19/82
s 5
f 42/91/87 41/92/88 66/93/89 67/94/90
s 8
f 43/55/91 42/56/92 67/57/93 68/58/94
s 4
f 68/58/95 55/59/96 44/60/97 43/55/98
f 55/59/96 56/61/99 45/62/100 44/60/97
f 56/61/99 57/63/101 46/64/102 45/62/100
f 47/65/103 46/64/102 57/63/101 58/66/104
s 8
f 58/66/105 59/67/106 48/68/107 47/65/108
s 3
f 49/95/109 48/96/110 59/97/111 60/98/112
s 6
f 50/69/113 49/70/114 60/71/115 61/72/116
s 2
f 61/72/117 62/73/118 51/74/119 50/69/120
f 62/73/118 63/75/121 52/76/122 51/74/119
f 63/75/121 64/77/123 53/78/124 52/76/122
f 54/79/125 53/78/124 64/77/123 65/80/126
s 6
f 65/80/127 66/81/128 41/82/129 54/79/130
s 4
f 35/47/131 56/61/99 55/59/96 31/43/132
f 37/50/133 57/63/101 56/61/99 35/47/131
f 58/66/104 57/63/101 37/50/133 40/53/134
s 8
f 7/52/83 59/67/106 58/66/105 40/53/84
s 3
f 60/98/112 59/97/111 7/99/135 6/100/136
s 6
f 61/72/116 60/71/115 6/36/61 30/37/62
s 2
f 28/33/137 62/73/118 61/72/117 30/37/138
f 26/30/139 63/75/121 62/73/118 28/33/137
f 23/26/140 64/77/123 63/75/121 26/30/139
f 65/80/126 64/77/123 23/26/140 24/25/141
s 6
f 5/24/44 66/81/128 65/80/127 24/25/45
s 5
f 67/94/90 66/93/89 5/101/142 8/102/143
s 8
f 68/58/94 67/57/93 8/41/69 34/44/72
s 4
f 31/43/132 55/59/96 68/58/95 34/44/144
s 5
f 70/90/20 69/89/19 41/92/88 42/91/87
s 8
f 71/5/68 70/40/67 42/56/92 43/55/91
s 4
f 43/55/98 44/60/97 72/6/14 71/5/13
f 44/60/97 45/62/100 73/11/25 72/6/14
f 45/62/100 46/64/102 74/15/31 73/11/25
f 75/20/38 74/15/31 46/64/102 47/65/103
s 8
f 47/65/108 48/68/107 76/54/86 75/20/85
s 3
f 77/86/12 76/85/11 48/96/110 49/95/109
s 6
f 78/17/60 77/35/59 49/70/114 50/69/113
s 2
f 50/69/120 51/74/119 79/13/27 78/17/33
f 51/74/119 52/76/122 80/9/21 79/13/27
f 52/76/122 53/78/124 81/3/7 80/9/21
f 82/4/8 81/3/7 53/78/124 54/79/125
s 6
f 54/79/130 41/82/129 69/27/48 82/4/47
s off
f 83/113/145 84/114/146 86/115/147 85/116/148
f 87/117/149 88/118/150 90/119/151 89/120/152
f 84/121/153 90/122/154 88/118/155 86/115/156
f 89/123/157 83/124/158 85/116/159 87/117/160
f 86/115/161 88/118/162 87/117/163 85/116/164
