# This file uses centimeters as units for non-parametric coordinates.

mtllib Tomb_02.mtl
g default
v -3.989485 2.615120 1.358049
v 3.989486 2.615120 1.358049
v 3.989486 2.615120 -1.358049
v -3.989485 2.615120 -1.358049
v -5.369970 4.170713 1.743123
v 5.369971 4.170713 1.743123
v 5.369971 4.170713 -1.743123
v -5.369970 4.170713 -1.743123
v -1.951498 4.170713 1.328566
v 1.951498 4.170713 1.328566
v 1.951498 4.170713 -1.328566
v -1.951498 4.170713 -1.328566
v -2.502848 23.596233 1.247405
v 2.502849 23.596233 1.247405
v 2.502849 23.596233 -1.247405
v -2.502848 23.596233 -1.247405
v -1.951498 16.180008 0.889502
v 1.951498 16.180008 0.889502
v 1.951498 16.180008 -0.889502
v -1.951498 16.180008 -0.889502
v -1.951498 19.464457 0.929971
v 1.951498 19.464457 0.929971
v 1.951498 19.464457 -0.929971
v -1.951498 19.464457 -0.929971
v 7.132823 15.699647 0.889502
v 7.132823 15.699647 -0.889502
v 7.132823 19.944817 -1.247405
v 7.132823 19.944817 1.247405
v -7.132822 15.699647 -0.889502
v -7.132822 15.699647 0.889502
v -7.132822 19.944817 1.247405
v -7.132822 19.944817 -1.247405
v -6.737316 0.000000 2.590676
v 6.737316 0.000000 2.590676
v -6.225998 2.615120 1.943075
v 6.225999 2.615120 1.943075
v -6.225998 2.615120 -1.943075
v 6.225999 2.615120 -1.943075
v -6.737316 0.000000 -2.590676
v 6.737316 0.000000 -2.590676
vt 0.645351 0.121523
vt 0.645351 0.281100
vt 0.153748 0.281101
vt 0.153747 0.121524
vt 0.216937 0.050319
vt 0.582162 0.050318
vt 0.582162 0.352305
vt 0.216937 0.352306
vt 0.716556 0.139149
vt 0.716556 0.263474
vt 0.082543 0.263475
vt 0.082542 0.139150
vt 0.899318 0.562135
vt 0.899316 0.451111
vt 0.954650 0.451110
vt 0.954652 0.562134
vt 0.807676 0.549906
vt 0.807676 0.463340
vt 0.906356 0.359469
vt 0.947608 0.359470
vt 0.807676 0.549906
vt 0.807676 0.463340
vt 0.899316 0.451111
vt 0.899318 0.562135
vt 0.947614 0.653777
vt 0.906362 0.653775
vt 0.468468 0.549906
vt 0.468468 0.463340
vt 0.734828 0.463340
vt 0.734829 0.549906
vt 0.712647 0.387070
vt 0.714629 0.442413
vt 0.464249 0.442413
vt 0.462852 0.405360
vt 0.468468 0.549906
vt 0.468468 0.463340
vt 0.734829 0.463340
vt 0.734829 0.549906
vt 0.717834 0.573436
vt 0.715852 0.628778
vt 0.466057 0.610489
vt 0.467454 0.573436
vt 0.907272 0.150392
vt 0.946729 0.150396
vt 0.954660 0.244552
vt 0.899326 0.244548
vt 0.946687 0.862855
vt 0.907229 0.862847
vt 0.899306 0.768691
vt 0.954640 0.768699
vt 0.907287 0.035472
vt 0.946745 0.035477
vt 0.818330 0.664826
vt 0.724174 0.664826
vt 0.724174 0.348420
vt 0.818330 0.348420
vt 0.946663 0.977775
vt 0.907205 0.977766
vt 0.818330 0.664826
vt 0.724174 0.664826
vt 0.724174 0.348420
vt 0.818330 0.348420
vt 0.624594 0.966063
vt 0.182887 0.966063
vt 0.199648 0.880337
vt 0.607833 0.880337
vt 0.607833 0.752947
vt 0.199648 0.752947
vt 0.182887 0.667221
vt 0.624594 0.667222
vt 0.113923 0.901566
vt 0.113923 0.731718
vt 0.693558 0.731718
vt 0.693559 0.901566
vn 0.000000 -0.240289 0.970701
vn 0.000000 -0.240289 0.970701
vn 0.000000 -0.240289 0.970701
vn 0.000000 -0.240289 0.970701
vn 0.747950 -0.663755 0.000000
vn 0.747950 -0.663755 0.000000
vn 0.747950 -0.663755 0.000000
vn 0.747950 -0.663755 0.000000
vn 0.000000 -0.240289 -0.970701
vn 0.000000 -0.240289 -0.970701
vn 0.000000 -0.240289 -0.970701
vn 0.000000 -0.240289 -0.970701
vn -0.747950 -0.663756 0.000000
vn -0.747950 -0.663756 0.000000
vn -0.747950 -0.663756 0.000000
vn -0.747950 -0.663756 0.000000
vn 0.000000 1.000000 0.000000
vn 0.000000 1.000000 0.000000
vn 0.000000 1.000000 0.000000
vn 0.000000 1.000000 0.000000
vn 0.000000 1.000000 0.000000
vn 0.000000 1.000000 0.000000
vn 0.000000 1.000000 0.000000
vn 0.000000 1.000000 0.000000
vn 0.011828 -0.052029 0.998576
vn -0.011828 -0.052029 0.998576
vn 0.000000 -0.076602 0.997062
vn 0.000000 -0.076602 0.997062
vn 0.991214 -0.132269 0.000000
vn 0.991214 -0.132269 0.000000
vn 0.991214 -0.132269 0.000000
vn 0.991214 -0.132269 0.000000
vn -0.011828 -0.052029 -0.998576
vn 0.011828 -0.052029 -0.998576
vn 0.000000 -0.076602 -0.997062
vn 0.000000 -0.076602 -0.997062
vn -0.991214 -0.132269 0.000000
vn -0.991214 -0.132269 0.000000
vn -0.991214 -0.132269 0.000000
vn -0.991214 -0.132269 0.000000
vn 0.000000 0.036536 0.999332
vn 0.000000 0.036536 0.999332
vn -0.007874 0.005762 0.999952
vn 0.007874 0.005762 0.999952
vn 1.000000 -0.000000 0.000000
vn 1.000000 -0.000000 0.000000
vn 1.000000 -0.000000 0.000000
vn 1.000000 -0.000000 0.000000
vn 0.000000 0.036536 -0.999332
vn 0.000000 0.036536 -0.999332
vn 0.007874 0.005762 -0.999952
vn -0.007874 0.005762 -0.999952
vn -1.000000 -0.000000 0.000000
vn -1.000000 -0.000000 0.000000
vn -1.000000 -0.000000 0.000000
vn -1.000000 -0.000000 0.000000
vn 1.000000 -0.000000 0.000000
vn 1.000000 -0.000000 0.000000
vn 1.000000 -0.000000 0.000000
vn 1.000000 -0.000000 0.000000
vn -1.000000 0.000000 0.000000
vn -1.000000 0.000000 0.000000
vn -1.000000 0.000000 0.000000
vn -1.000000 0.000000 0.000000
vn -0.092314 -0.995730 0.000000
vn -0.092314 -0.995730 0.000000
vn -0.092314 -0.995730 0.000000
vn -0.092314 -0.995730 0.000000
vn -0.030575 -0.052809 -0.998137
vn -0.030575 -0.052809 -0.998136
vn -0.092314 0.995730 0.000000
vn -0.092314 0.995730 0.000000
vn -0.092314 0.995730 0.000000
vn -0.092314 0.995730 0.000000
vn -0.030575 -0.052809 0.998136
vn -0.030575 -0.052809 0.998137
vn 0.092314 -0.995730 0.000000
vn 0.092314 -0.995730 0.000000
vn 0.092314 -0.995730 0.000000
vn 0.092314 -0.995730 0.000000
vn 0.030575 -0.052809 0.998136
vn 0.030575 -0.052809 0.998136
vn 0.092314 0.995730 0.000000
vn 0.092314 0.995730 0.000000
vn 0.092314 0.995730 0.000000
vn 0.092314 0.995730 0.000000
vn 0.030575 -0.052809 -0.998136
vn 0.030575 -0.052809 -0.998136
vn 0.000000 0.240377 0.970680
vn 0.000000 0.240376 0.970680
vn 0.000000 0.240377 0.970680
vn 0.000000 0.240376 0.970680
vn 0.000000 0.240376 -0.970680
vn 0.000000 0.240377 -0.970680
vn 0.000000 0.240376 -0.970680
vn 0.000000 0.240377 -0.970680
vn 0.981416 0.191890 0.000000
vn 0.981416 0.191890 0.000000
vn 0.981416 0.191890 0.000000
vn 0.981416 0.191890 0.000000
vn -0.981416 0.191890 0.000000
vn -0.981416 0.191890 0.000000
vn -0.981416 0.191890 0.000000
vn -0.981416 0.191890 0.000000
vn 0.000000 1.000000 0.000000
vn 0.000000 1.000000 0.000000
vn 0.000000 1.000000 0.000000
vn 0.000000 1.000000 0.000000
s off
g Tomb_02
usemtl lambert2SG
f 1/5/1 2/6/2 6/1/3 5/4/4
f 2/9/5 3/10/6 7/2/7 6/1/8
f 3/7/9 4/8/10 8/3/11 7/2/12
f 4/11/13 1/12/14 5/4/15 8/3/16
f 6/1/17 7/2/18 8/3/19 5/4/20
f 13/13/21 14/14/22 15/15/23 16/16/24
s 1
f 21/17/25 22/18/26 14/14/27 13/13/28
s off
f 22/19/29 23/20/30 15/15/31 14/14/32
s 2
f 23/21/33 24/22/34 16/23/35 15/24/36
s off
f 24/25/37 21/26/38 13/13/39 16/16/40
s 1
f 9/27/41 10/28/42 18/29/43 17/30/44
s off
f 10/31/45 11/32/46 19/33/47 18/34/48
s 2
f 11/35/49 12/36/50 20/37/51 19/38/52
s off
f 12/39/53 9/40/54 17/41/55 20/42/56
s 1
f 17/30/44 18/29/43 22/18/26 21/17/25
s off
f 25/43/57 26/44/58 27/45/59 28/46/60
s 2
f 19/38/52 20/37/51 24/22/34 23/21/33
s off
f 29/47/61 30/48/62 31/49/63 32/50/64
f 18/51/65 19/52/66 26/44/67 25/43/68
s 2
f 19/38/52 23/21/33 27/53/69 26/54/70
s off
f 23/20/71 22/19/72 28/46/73 27/45/74
s 1
f 22/18/26 18/29/43 25/55/75 28/56/76
s off
f 20/57/77 17/58/78 30/48/79 29/47/80
s 1
f 17/30/44 21/17/25 31/59/81 30/60/82
s off
f 21/26/83 24/25/84 32/50/85 31/49/86
s 2
f 24/22/34 20/37/51 29/61/87 32/62/88
s off
f 33/63/89 34/64/90 36/65/91 35/66/92
f 37/67/93 38/68/94 40/69/95 39/70/96
f 34/71/97 40/72/98 38/68/99 36/65/100
f 39/73/101 33/74/102 35/66/103 37/67/104
f 36/65/105 38/68/106 37/67/107 35/66/108
