# This file uses centimeters as units for non-parametric coordinates.

mtllib moned1a.mtl
g default
v -5.850566 2.813928 -5.736204
v -5.841395 2.813928 -5.632703
v -5.782310 2.813928 -5.657860
v -5.749296 2.813928 -5.712942
v -5.754964 2.813928 -5.776909
v -5.797149 2.813928 -5.825329
v -5.859737 2.813928 -5.839705
v -5.918822 2.813928 -5.814548
v -5.951836 2.813928 -5.759466
v -5.946168 2.813928 -5.695499
v -5.903983 2.813928 -5.647079
v -5.841395 2.856064 -5.632703
v -5.782310 2.856064 -5.657860
v -5.749296 2.856064 -5.712942
v -5.754964 2.856064 -5.776909
v -5.797149 2.856064 -5.825329
v -5.859737 2.856064 -5.839705
v -5.918822 2.856064 -5.814548
v -5.951836 2.856064 -5.759466
v -5.946168 2.856064 -5.695498
v -5.903983 2.856064 -5.647079
v -5.850566 2.856064 -5.736204
vt 0.514590 0.565657
vt 0.004863 0.005316
vt 0.107836 0.005316
vt 0.205501 0.005316
vt 0.300117 0.005316
vt 0.397781 0.005316
vt 0.500754 0.005316
vt 0.603727 0.005316
vt 0.701391 0.005316
vt 0.796007 0.005316
vt 0.893672 0.005316
vt 0.004863 0.129968
vt 0.107836 0.129968
vt 0.205501 0.129968
vt 0.300117 0.129968
vt 0.397781 0.129968
vt 0.500754 0.129968
vt 0.603727 0.129968
vt 0.701391 0.129968
vt 0.939207 0.565657
vt 0.858112 0.828084
vt 0.796007 0.129968
vt 0.893672 0.129968
vt 0.645804 0.990273
vt 0.383377 0.990273
vt 0.171068 0.828084
vt 0.089974 0.565657
vt 0.171068 0.303229
vt 0.383377 0.141040
vt 0.645804 0.141040
vt 0.858112 0.303229
vt 0.939207 0.565657
vt 0.858112 0.828084
vt 0.645804 0.990273
vt 0.383377 0.990273
vt 0.171068 0.828084
vt 0.089974 0.565657
vt 0.171068 0.303229
vt 0.383377 0.141040
vt 0.645804 0.141040
vt 0.858112 0.303229
vt 0.514590 0.565657
vt 0.996644 0.129968
vt 0.996644 0.005316
vt 0.996644 0.129968
vn 0.000000 -1.000000 -0.000000
vn 0.000000 -1.000000 -0.000000
vn 0.000000 -1.000000 -0.000000
vn 0.000000 -1.000000 -0.000000
vn 0.000000 -1.000000 -0.000000
vn 0.000000 -1.000000 -0.000000
vn 0.000000 -1.000000 -0.000000
vn 0.000000 -1.000000 -0.000000
vn 0.000000 -1.000000 -0.000000
vn 0.000000 -1.000000 -0.000000
vn 0.000000 -1.000000 -0.000000
vn 0.000000 -1.000000 -0.000000
vn 0.000000 -1.000000 -0.000000
vn 0.000000 -1.000000 -0.000000
vn 0.000000 -1.000000 -0.000000
vn 0.000000 -1.000000 -0.000000
vn 0.000000 -1.000000 -0.000000
vn 0.000000 -1.000000 -0.000000
vn 0.000000 -1.000000 -0.000000
vn 0.000000 -1.000000 -0.000000
vn 0.000000 -1.000000 -0.000000
vn 0.000000 -1.000000 -0.000000
vn 0.000000 -1.000000 -0.000000
vn 0.000000 -1.000000 -0.000000
vn 0.000000 -1.000000 -0.000000
vn 0.000000 -1.000000 -0.000000
vn 0.000000 -1.000000 -0.000000
vn 0.000000 -1.000000 -0.000000
vn 0.000000 -1.000000 -0.000000
vn 0.000000 -1.000000 -0.000000
vn 0.088258 0.000000 0.996098
vn 0.656893 0.000000 0.753984
vn 0.088258 -0.000000 0.996098
vn 0.088258 0.000000 0.996098
vn 0.656893 0.000000 0.753983
vn 0.656893 0.000000 0.753984
vn 0.656893 0.000000 0.753983
vn 0.974618 -0.000000 0.223873
vn 0.656893 0.000000 0.753984
vn 0.656893 0.000000 0.753983
vn 0.974618 -0.000001 0.223873
vn 0.974618 -0.000000 0.223873
vn 0.974618 -0.000001 0.223873
vn 0.920072 -0.000001 -0.391748
vn 0.974618 -0.000000 0.223873
vn 0.974618 -0.000001 0.223873
vn 0.920072 -0.000001 -0.391749
vn 0.920072 -0.000001 -0.391748
vn 0.920072 -0.000001 -0.391749
vn 0.514089 -0.000002 -0.857737
vn 0.920072 -0.000001 -0.391748
vn 0.920072 -0.000001 -0.391749
vn 0.514090 -0.000002 -0.857736
vn 0.514089 -0.000002 -0.857737
vn 0.514090 -0.000002 -0.857736
vn -0.088257 -0.000000 -0.996098
vn 0.514089 -0.000002 -0.857737
vn 0.514090 -0.000002 -0.857736
vn -0.088257 -0.000000 -0.996098
vn -0.088257 -0.000000 -0.996098
vn -0.088257 -0.000000 -0.996098
vn -0.656893 -0.000000 -0.753983
vn -0.088257 -0.000000 -0.996098
vn -0.088257 -0.000000 -0.996098
vn -0.656893 -0.000000 -0.753984
vn -0.656893 -0.000000 -0.753983
vn -0.656893 -0.000000 -0.753984
vn -0.974618 0.000001 -0.223874
vn -0.656893 -0.000000 -0.753983
vn -0.656893 -0.000000 -0.753984
vn -0.974618 0.000000 -0.223873
vn -0.974618 0.000001 -0.223874
vn -0.974618 0.000000 -0.223873
vn -0.920072 -0.000001 0.391750
vn -0.974618 0.000001 -0.223874
vn -0.974618 0.000000 -0.223873
vn -0.920072 -0.000001 0.391749
vn -0.920072 -0.000001 0.391750
vn -0.920072 -0.000001 0.391749
vn -0.514090 -0.000000 0.857737
vn -0.920072 -0.000001 0.391750
vn -0.920072 -0.000001 0.391749
vn -0.514090 -0.000000 0.857736
vn -0.514090 -0.000000 0.857737
vn -0.514090 -0.000000 0.857736
vn 0.088258 -0.000000 0.996098
vn -0.514090 -0.000000 0.857737
vn -0.514090 -0.000000 0.857736
vn 0.088258 0.000000 0.996098
vn 0.088258 -0.000000 0.996098
vn 0.000000 1.000000 0.000000
vn 0.000000 1.000000 0.000000
vn 0.000000 1.000000 0.000000
vn 0.000000 1.000000 0.000000
vn 0.000000 1.000000 0.000000
vn 0.000000 1.000000 0.000000
vn 0.000000 1.000000 0.000000
vn 0.000000 1.000000 0.000000
vn 0.000000 1.000000 0.000000
vn 0.000000 1.000000 0.000000
vn 0.000000 1.000000 0.000000
vn 0.000000 1.000000 0.000000
vn 0.000000 1.000000 0.000000
vn 0.000000 1.000000 0.000000
vn 0.000000 1.000000 0.000000
vn 0.000000 1.000000 0.000000
vn 0.000000 1.000000 0.000000
vn 0.000000 1.000000 0.000000
vn 0.000000 1.000000 0.000000
vn 0.000000 1.000000 0.000000
vn 0.000000 1.000000 0.000000
vn 0.000000 1.000000 0.000000
vn 0.000000 1.000000 0.000000
vn 0.000000 1.000000 0.000000
vn 0.000000 1.000000 0.000000
vn 0.000000 1.000000 0.000000
vn 0.000000 1.000000 0.000000
vn 0.000000 1.000000 0.000000
vn 0.000000 1.000000 0.000000
vn 0.000000 1.000000 0.000000
s off
g Object01
usemtl Object01SG
f 1/1/1 3/21/2 2/20/3
f 1/1/4 4/24/5 3/21/6
f 1/1/7 5/25/8 4/24/9
f 1/1/10 6/26/11 5/25/12
f 1/1/13 7/27/14 6/26/15
f 1/1/16 8/28/17 7/27/18
f 1/1/19 9/29/20 8/28/21
f 1/1/22 10/30/23 9/29/24
f 1/1/25 11/31/26 10/30/27
f 1/1/28 2/20/29 11/31/30
f 2/2/31 13/13/32 12/12/33
f 2/2/34 3/3/35 13/13/36
f 3/3/37 14/14/38 13/13/39
f 3/3/40 4/4/41 14/14/42
f 4/4/43 15/15/44 14/14/45
f 4/4/46 5/5/47 15/15/48
f 5/5/49 16/16/50 15/15/51
f 5/5/52 6/6/53 16/16/54
f 6/6/55 17/17/56 16/16/57
f 6/6/58 7/7/59 17/17/60
f 7/7/61 18/18/62 17/17/63
f 7/7/64 8/8/65 18/18/66
f 8/8/67 19/19/68 18/18/69
f 8/8/70 9/9/71 19/19/72
f 9/9/73 20/22/74 19/19/75
f 9/9/76 10/10/77 20/22/78
f 10/10/79 21/23/80 20/22/81
f 10/10/82 11/11/83 21/23/84
f 11/11/85 12/43/86 21/23/87
f 11/11/88 2/44/89 12/45/90
f 22/42/91 12/32/92 13/33/93
f 22/42/94 13/33/95 14/34/96
f 22/42/97 14/34/98 15/35/99
f 22/42/100 15/35/101 16/36/102
f 22/42/103 16/36/104 17/37/105
f 22/42/106 17/37/107 18/38/108
f 22/42/109 18/38/110 19/39/111
f 22/42/112 19/39/113 20/40/114
f 22/42/115 20/40/116 21/41/117
f 22/42/118 21/41/119 12/32/120
