# This file uses centimeters as units for non-parametric coordinates.

mtllib Mushrooms_02.mtl
g default
v 1.290400 0.000000 -2.609989
v 0.595728 0.000000 -2.384276
v 0.595728 0.000000 -1.653854
v 1.290400 0.000000 -1.428141
v 1.719731 0.000000 -2.019065
v 1.984520 3.411171 -2.406394
v 1.588268 3.470242 -2.277068
v 1.593400 3.515557 -1.858557
v 1.992826 3.484493 -1.729230
v 2.234551 3.419978 -2.067812
v 0.646411 2.197202 -1.297363
v 2.763049 1.957425 -1.297363
v 1.682235 1.878739 -3.131296
v 1.712228 2.143505 -0.686052
v 2.748053 1.825042 -2.519985
v 0.631414 2.064819 -2.519985
v 1.925291 4.024324 -2.129456
v 0.475186 2.149558 -1.908674
v 1.099197 2.194987 -0.849849
v 1.876271 3.591594 -1.310932
v 1.202633 3.542552 -2.453962
v 1.211981 3.625062 -1.691944
v 2.321242 2.056551 -0.849853
v 2.919277 1.872686 -1.908674
v 2.521867 3.393106 -2.453961
v 2.531214 3.475616 -1.691940
v 2.295268 1.827257 -2.967496
v 1.073222 1.965693 -2.967496
v 1.857578 3.426574 -2.834970
vt 0.253257 0.679893
vt 0.082865 0.778269
vt 0.030146 0.581517
vt 0.253257 0.483142
vt 0.082865 0.384766
vt 0.226897 0.240734
vt 0.423649 0.188014
vt 0.423649 0.384766
vt 0.423649 0.581517
vt 0.620400 0.240734
vt 0.594040 0.483142
vt 0.764432 0.384766
vt 0.817151 0.581517
vt 0.764432 0.778269
vt 0.594040 0.679893
vt 0.620400 0.922301
vt 0.423649 0.778269
vt 0.423649 0.975020
vt 0.226897 0.922301
vt 0.887273 0.036496
vt 0.922458 0.031702
vt 0.975696 0.319678
vt 0.914676 0.328267
vt 0.725672 0.320150
vt 0.778324 0.031662
vt 0.811888 0.035436
vt 0.783906 0.326699
vt 0.832631 0.037769
vt 0.819897 0.330746
vt 0.853499 0.037245
vt 0.856103 0.329837
vn -0.812761 0.248464 -0.526958
vn -0.785306 0.242048 -0.569831
vn 0.350485 -0.016377 -0.936425
vn 0.231223 0.009982 -0.972850
vn -0.752701 0.250409 0.608882
vn -0.806706 0.261187 0.530100
vn 0.331051 0.013821 0.943512
vn 0.227268 0.037287 0.973118
vn 0.988180 -0.147472 0.041860
vn 0.988919 -0.148027 0.011299
vn -0.668087 0.571434 -0.476574
vn -0.773701 0.384253 -0.503722
vn -0.893655 0.439918 0.088622
vn -0.672093 0.642239 0.368537
vn -0.784439 0.433331 0.443712
vn -0.527448 0.466579 0.710002
vn 0.050325 0.444245 0.894491
vn 0.070828 0.625229 0.777220
vn 0.111900 0.987797 -0.108329
vn 0.618453 0.336767 0.710003
vn 0.798727 0.475621 0.368538
vn 0.861494 0.246875 0.443712
vn 0.969416 0.228865 0.088621
vn 0.840051 0.201445 -0.503721
vn 0.778984 0.407508 -0.476573
vn 0.384285 0.186267 -0.904229
vn 0.047686 0.420944 -0.905832
vn 0.021035 0.185690 -0.982383
vn -0.332880 0.267509 -0.904229
s 1
g Seta4 GRP_Setas_02
usemtl lambert2SG
f 2/24/1 7/25/2 6/26/3 1/27/4
f 8/20/5 7/21/2 2/22/1 3/23/6
f 9/30/7 8/20/5 3/23/6 4/31/8
f 10/28/9 9/30/7 4/31/8 5/29/10
f 6/26/3 10/28/9 5/29/10 1/27/4
s 2
f 21/1/11 16/2/12 18/3/13 22/4/14
f 18/3/13 11/5/15 19/6/16 22/4/14
f 19/6/16 14/7/17 20/8/18 22/4/14
f 20/8/18 17/9/19 21/1/11 22/4/14
f 20/8/18 14/7/17 23/10/20 26/11/21
f 23/10/20 12/12/22 24/13/23 26/11/21
f 24/13/23 15/14/24 25/15/25 26/11/21
f 25/15/25 17/9/19 20/8/18 26/11/21
f 25/15/25 15/14/24 27/16/26 29/17/27
f 27/16/26 13/18/28 28/19/29 29/17/27
f 28/19/29 16/2/12 21/1/11 29/17/27
f 21/1/11 17/9/19 25/15/25 29/17/27
g default
v -1.302498 0.000000 -1.194643
v -1.810354 0.000000 -1.029631
v -1.810354 0.000000 -0.495638
v -1.302498 0.000000 -0.330626
v -0.988625 0.000000 -0.762635
v -1.397939 2.479564 -1.386198
v -1.690649 2.498421 -1.292979
v -1.690649 2.559444 -0.991316
v -1.397939 2.578301 -0.898097
v -1.217035 2.528933 -1.142148
v -2.270079 1.565422 -0.488575
v -0.712764 1.565422 -0.488575
v -1.491422 1.298015 -1.810475
v -1.491421 1.654557 -0.047941
v -0.712764 1.387151 -1.369842
v -2.270079 1.387151 -1.369842
v -1.491422 2.936685 -1.224632
v -2.390540 1.476286 -0.929208
v -1.940980 1.630674 -0.166006
v -1.491422 2.674035 -0.599759
v -1.976734 2.507369 -1.423657
v -1.976734 2.618479 -0.874394
v -1.041862 1.630674 -0.166009
v -0.592303 1.476286 -0.929209
v -1.006109 2.507370 -1.423656
v -1.006109 2.618480 -0.874391
v -1.041862 1.321899 -1.692408
v -1.940981 1.321899 -1.692408
v -1.491422 2.451814 -1.698287
vt 0.253257 0.679893
vt 0.082865 0.778269
vt 0.030146 0.581517
vt 0.253257 0.483142
vt 0.082865 0.384766
vt 0.226897 0.240734
vt 0.423649 0.188014
vt 0.423649 0.384766
vt 0.423649 0.581517
vt 0.620400 0.240734
vt 0.594040 0.483142
vt 0.764432 0.384766
vt 0.817151 0.581517
vt 0.764432 0.778269
vt 0.594040 0.679893
vt 0.620400 0.922301
vt 0.423649 0.778269
vt 0.423649 0.975020
vt 0.226897 0.922301
vt 0.887273 0.036496
vt 0.922458 0.031702
vt 0.975696 0.319678
vt 0.914676 0.328267
vt 0.725672 0.320150
vt 0.778324 0.031662
vt 0.811888 0.035436
vt 0.783906 0.326699
vt 0.832631 0.037769
vt 0.819897 0.330746
vt 0.853499 0.037245
vt 0.856103 0.329837
vn -0.835544 -0.018302 -0.549119
vn -0.821953 -0.021050 -0.569166
vn 0.310812 -0.061682 -0.948468
vn 0.331196 -0.060379 -0.941628
vn -0.791297 0.151838 0.592278
vn -0.767663 0.156351 0.621489
vn 0.291631 0.216866 0.931623
vn 0.289405 0.216932 0.932301
vn 0.995498 0.092524 0.020563
vn 0.993414 0.098081 0.059233
vn -0.728163 0.447227 -0.519391
vn -0.812037 0.247698 -0.528434
vn -0.937493 0.343194 0.057655
vn -0.740114 0.593685 0.315863
vn -0.828230 0.381207 0.410750
vn -0.576616 0.467128 0.670303
vn -0.000000 0.526568 0.850133
vn 0.000000 0.697293 0.716786
vn -0.000000 0.980147 -0.198274
vn 0.576616 0.467126 0.670304
vn 0.740114 0.593685 0.315864
vn 0.828230 0.381206 0.410752
vn 0.937494 0.343194 0.057654
vn 0.812037 0.247699 -0.528434
vn 0.728163 0.447227 -0.519390
vn 0.360877 0.145174 -0.921245
vn 0.000000 0.339515 -0.940601
vn 0.000000 0.096777 -0.995306
vn -0.360876 0.145173 -0.921245
s 1
g GRP_Setas_02 Seta5
usemtl lambert2SG
f 31/55/30 36/56/31 35/57/32 30/58/33
f 37/51/34 36/52/31 31/53/30 32/54/35
f 38/61/36 37/51/34 32/54/35 33/62/37
f 39/59/38 38/61/36 33/62/37 34/60/39
f 35/57/32 39/59/38 34/60/39 30/58/33
s 2
f 50/32/40 45/33/41 47/34/42 51/35/43
f 47/34/42 40/36/44 48/37/45 51/35/43
f 48/37/45 43/38/46 49/39/47 51/35/43
f 49/39/47 46/40/48 50/32/40 51/35/43
f 49/39/47 43/38/46 52/41/49 55/42/50
f 52/41/49 41/43/51 53/44/52 55/42/50
f 53/44/52 44/45/53 54/46/54 55/42/50
f 54/46/54 46/40/48 49/39/47 55/42/50
f 54/46/54 44/45/53 56/47/55 58/48/56
f 56/47/55 42/49/57 57/50/58 58/48/56
f 57/50/58 45/33/41 50/32/40 58/48/56
f 50/32/40 46/40/48 54/46/54 58/48/56
g default
v 0.326236 0.000000 0.261970
v -0.065718 0.000000 0.389323
v -0.065718 0.000000 0.801448
v 0.326236 0.000000 0.928802
v 0.568477 0.000000 0.595386
v 0.294524 1.956824 0.403217
v 0.068616 1.956824 0.476619
v 0.068616 1.956824 0.714152
v 0.294524 1.956824 0.787555
v 0.434142 1.956824 0.595386
v -0.378578 1.127955 0.942347
v 0.823329 1.127955 0.942347
v 0.222376 1.127955 -0.098536
v 0.222376 1.127955 1.289308
v 0.823329 1.127955 0.248425
v -0.378578 1.127955 0.248425
v 0.222376 2.277894 0.595386
v -0.471547 1.127955 0.595386
v -0.124585 1.127955 1.196342
v 0.222376 1.983590 1.027884
v -0.152179 1.983590 0.379136
v -0.152179 1.983590 0.811633
v 0.569338 1.127955 1.196339
v 0.916299 1.127955 0.595386
v 0.596931 1.983590 0.379137
v 0.596931 1.983590 0.811636
v 0.569338 1.127955 -0.005569
v -0.124586 1.127955 -0.005569
v 0.222376 1.983590 0.162888
vt 0.253257 0.679893
vt 0.082865 0.778269
vt 0.030146 0.581517
vt 0.253257 0.483142
vt 0.082865 0.384766
vt 0.226897 0.240734
vt 0.423649 0.188014
vt 0.423649 0.384766
vt 0.423649 0.581517
vt 0.620400 0.240734
vt 0.594040 0.483142
vt 0.764432 0.384766
vt 0.817151 0.581517
vt 0.764432 0.778269
vt 0.594040 0.679893
vt 0.620400 0.922301
vt 0.423649 0.778269
vt 0.423649 0.975020
vt 0.226897 0.922301
vt 0.887273 0.036496
vt 0.922458 0.031702
vt 0.975696 0.319678
vt 0.914676 0.328267
vt 0.725672 0.320150
vt 0.778324 0.031662
vt 0.811888 0.035436
vt 0.783906 0.326699
vt 0.832631 0.037769
vt 0.819897 0.330746
vt 0.853499 0.037245
vt 0.856103 0.329837
vn -0.807286 0.081495 -0.584507
vn -0.805422 0.081481 -0.587075
vn 0.310558 0.073441 -0.947713
vn 0.305670 0.073476 -0.949298
vn -0.805422 0.081481 0.587074
vn -0.807286 0.081495 0.584506
vn 0.310558 0.073441 0.947713
vn 0.305670 0.073476 0.949298
vn 0.997652 0.068488 0.000000
vn 0.997652 0.068488 0.000000
vn -0.728163 0.541329 -0.420406
vn -0.812037 0.347555 -0.468831
vn -0.937493 0.324949 0.124556
vn -0.740114 0.519271 0.427304
vn -0.828231 0.292198 0.478179
vn -0.576616 0.324950 0.749614
vn -0.000000 0.347556 0.937659
vn 0.000000 0.541330 0.840810
vn -0.000000 1.000000 -0.000000
vn 0.576616 0.324948 0.749615
vn 0.740114 0.519271 0.427305
vn 0.828230 0.292197 0.478180
vn 0.937494 0.324949 0.124555
vn 0.812037 0.347555 -0.468830
vn 0.728163 0.541330 -0.420405
vn 0.360877 0.324950 -0.874171
vn 0.000000 0.519271 -0.854610
vn 0.000000 0.292199 -0.956358
vn -0.360876 0.324950 -0.874172
s 1
g GRP_Setas_02 Seta6
usemtl lambert2SG
f 60/86/59 65/87/60 64/88/61 59/89/62
f 66/82/63 65/83/60 60/84/59 61/85/64
f 67/92/65 66/82/63 61/85/64 62/93/66
f 68/90/67 67/92/65 62/93/66 63/91/68
f 64/88/61 68/90/67 63/91/68 59/89/62
s 2
f 79/63/69 74/64/70 76/65/71 80/66/72
f 76/65/71 69/67/73 77/68/74 80/66/72
f 77/68/74 72/69/75 78/70/76 80/66/72
f 78/70/76 75/71/77 79/63/69 80/66/72
f 78/70/76 72/69/75 81/72/78 84/73/79
f 81/72/78 70/74/80 82/75/81 84/73/79
f 82/75/81 73/76/82 83/77/83 84/73/79
f 83/77/83 75/71/77 78/70/76 84/73/79
f 83/77/83 73/76/82 85/78/84 87/79/85
f 85/78/84 71/80/86 86/81/87 87/79/85
f 86/81/87 74/64/70 79/63/69 87/79/85
f 79/63/69 75/71/77 83/77/83 87/79/85
g default
v -0.406429 -0.000000 -2.704165
v -0.670593 -0.000000 -2.618333
v -0.670593 -0.000000 -2.340574
v -0.406429 -0.000000 -2.254742
v -0.243167 -0.000000 -2.479454
v -0.335100 1.310639 -2.431077
v -0.485942 1.331331 -2.381607
v -0.485942 1.331331 -2.221517
v -0.335100 1.310639 -2.172046
v -0.241874 1.297850 -2.301562
v -0.860460 0.818845 -2.067721
v -0.057931 0.708755 -2.067722
v -0.459195 0.763800 -2.769243
v -0.459195 0.763800 -1.833881
v -0.057931 0.708755 -2.535402
v -0.860460 0.818845 -2.535402
v -0.353865 1.531630 -2.301562
v -0.922537 0.827361 -2.301562
v -0.690866 0.795581 -1.896537
v -0.380822 1.335119 -2.010072
v -0.630918 1.369427 -2.447307
v -0.630918 1.369427 -2.155818
v -0.227525 0.732020 -1.896539
v 0.004147 0.700239 -2.301562
v -0.130727 1.300811 -2.447306
v -0.130727 1.300811 -2.155817
v -0.227524 0.732020 -2.706585
v -0.690866 0.795581 -2.706585
v -0.380822 1.335119 -2.593051
vt 0.253257 0.679893
vt 0.082865 0.778269
vt 0.030146 0.581517
vt 0.253257 0.483142
vt 0.082865 0.384766
vt 0.226897 0.240734
vt 0.423649 0.188014
vt 0.423649 0.384766
vt 0.423649 0.581517
vt 0.620400 0.240734
vt 0.594040 0.483142
vt 0.764432 0.384766
vt 0.817151 0.581517
vt 0.764432 0.778269
vt 0.594040 0.679893
vt 0.620400 0.922301
vt 0.423649 0.778269
vt 0.423649 0.975020
vt 0.226897 0.922301
vt 0.887273 0.036496
vt 0.922458 0.031702
vt 0.975696 0.319678
vt 0.914676 0.328267
vt 0.725672 0.320150
vt 0.778324 0.031662
vt 0.811888 0.035436
vt 0.783906 0.326699
vt 0.832631 0.037769
vt 0.819897 0.330746
vt 0.853499 0.037245
vt 0.856103 0.329837
vn -0.774833 0.214396 -0.594700
vn -0.818611 0.209681 -0.534706
vn 0.303208 0.177877 -0.936176
vn 0.264430 0.182159 -0.947046
vn -0.793432 0.055442 0.606129
vn -0.841619 0.068469 0.535714
vn 0.264767 -0.074748 0.961411
vn 0.288868 -0.075633 0.954377
vn 0.998795 -0.008008 0.048424
vn 0.998702 0.005487 -0.050646
vn -0.647837 0.635269 -0.420406
vn -0.757267 0.454691 -0.468831
vn -0.884632 0.449345 0.124557
vn -0.662675 0.615039 0.427304
vn -0.780835 0.402048 0.478178
vn -0.527103 0.400301 0.749614
vn 0.047235 0.344331 0.937659
vn 0.073571 0.536307 0.840810
vn 0.135906 0.990722 0.000000
vn 0.615429 0.243567 0.749615
vn 0.803819 0.413867 0.427304
vn 0.860256 0.176924 0.478181
vn 0.972958 0.194523 0.124556
vn 0.851737 0.233970 -0.468831
vn 0.794977 0.437345 -0.420405
vn 0.401691 0.272890 -0.874171
vn 0.070573 0.514453 -0.854610
vn 0.039712 0.289488 -0.956358
vn -0.313365 0.370980 -0.874172
s 1
g GRP_Setas_02 Seta7
usemtl lambert2SG
f 89/117/88 94/118/89 93/119/90 88/120/91
f 95/113/92 94/114/89 89/115/88 90/116/93
f 96/123/94 95/113/92 90/116/93 91/124/95
f 97/121/96 96/123/94 91/124/95 92/122/97
f 93/119/90 97/121/96 92/122/97 88/120/91
s 2
f 108/94/98 103/95/99 105/96/100 109/97/101
f 105/96/100 98/98/102 106/99/103 109/97/101
f 106/99/103 101/100/104 107/101/105 109/97/101
f 107/101/105 104/102/106 108/94/98 109/97/101
f 107/101/105 101/100/104 110/103/107 113/104/108
f 110/103/107 99/105/109 111/106/110 113/104/108
f 111/106/110 102/107/111 112/108/112 113/104/108
f 112/108/112 104/102/106 107/101/105 113/104/108
f 112/108/112 102/107/111 114/109/113 116/110/114
f 114/109/113 100/111/115 115/112/116 116/110/114
f 115/112/116 103/95/99 108/94/98 116/110/114
f 108/94/98 104/102/106 112/108/112 116/110/114
