# This file uses centimeters as units for non-parametric coordinates.

mtllib Tocon.mtl
g default
v -5.121883 0.448723 8.106030
v 0.300838 0.245432 9.547768
v 4.327610 0.245432 8.593427
v 7.479233 0.233387 5.672876
v 8.474606 0.245432 0.337520
v 5.827091 0.245432 -4.573371
v 0.920704 0.000000 -6.968832
v -4.638565 0.245432 -5.614337
v -6.727222 0.245432 -3.491783
v -8.396091 0.449893 2.029264
v -4.906563 3.058803 7.829209
v 0.135094 2.100386 8.854027
v 3.993561 2.108252 7.930535
v 7.042709 3.386424 5.344196
v 7.477551 2.759621 0.694337
v 7.555927 3.138210 -2.247442
v 4.981556 2.759621 -3.935470
v 0.857430 3.386424 -6.128880
v -4.462643 1.708361 -5.059080
v -6.470242 1.706763 -3.041748
v -8.019444 3.062165 2.022852
v -6.868443 3.709090 5.513742
v -3.171349 5.893785 7.507553
v 0.448566 6.034711 8.528605
v 4.151775 6.227221 7.620201
v 6.946026 6.419730 5.025740
v 8.082577 6.560657 1.440415
v 7.256908 6.612239 -2.175100
v 4.690250 6.560657 -4.852021
v 1.070332 6.419730 -5.873076
v -2.632893 6.227221 -4.964669
v -5.595646 6.225634 -2.287577
v -6.579922 6.095614 0.817995
v -5.738010 5.842202 4.830634
v -3.293018 8.478598 7.787104
v 0.474094 8.744650 8.885424
v 4.312603 9.108807 7.961411
v 7.194241 9.472961 5.262506
v 8.346718 9.738968 1.511971
v 7.461510 9.836458 -2.285407
v 4.775635 9.738968 -5.112012
v 1.008953 9.472961 -6.210572
v -2.829548 9.108807 -5.286559
v -5.842869 8.565712 -2.475298
v -6.842182 8.340887 0.774054
v -5.978893 8.381107 4.960497
v -3.948421 11.818937 8.655480
v 0.216331 12.158766 9.916470
v 4.440895 12.622976 8.922328
v 7.593307 13.087189 5.939441
v 8.828861 13.427015 1.767076
v 7.816517 13.551401 -2.476794
v 4.827518 13.427015 -5.655025
v 0.662762 13.087189 -6.916006
v -3.561798 12.622976 -5.921870
v -6.714207 12.158766 -2.938989
v -7.949776 11.818939 1.233382
v -6.937428 11.694553 5.477250
v -7.704952 0.245432 7.608032
v -6.941212 1.425610 9.115698
v -7.704952 1.200132 7.608032
v -6.099293 0.245432 10.586363
v -6.099293 1.031179 10.586363
v 11.650597 0.241514 -3.435727
v 10.028706 1.853153 -3.823611
v 11.000713 1.596304 -2.826439
v 10.332047 0.241514 -4.946602
v 9.682167 1.596304 -4.337322
v 14.407616 0.241518 -5.034136
v 14.309795 0.241518 -5.592625
v 14.309795 1.063649 -5.592625
v 14.407616 0.972463 -5.034136
v 13.562077 0.241518 -6.003015
v 13.562077 0.972463 -6.003015
v -11.269497 0.245432 11.232065
v -10.609695 0.245432 11.765955
v -10.609695 0.769974 11.765955
v -11.269497 0.987969 11.232065
v -11.169392 0.769974 10.727783
v -11.169392 0.245432 10.727783
v -7.689503 0.241507 -6.551965
v -8.323162 0.241507 -6.203207
v -8.323162 0.672761 -6.203207
v -7.689503 0.672761 -6.551965
v 9.168217 7.334350 2.906812
v 9.640251 7.409404 1.360963
v 9.647221 8.723274 1.393783
v 9.179241 8.625696 2.944288
v 12.445927 8.601902 1.920657
v 12.636257 8.602962 1.265935
v 12.632732 9.168291 1.267837
v 12.441952 9.165924 1.922798
v 7.790077 12.916477 1.710549
v 3.965534 12.215759 7.945507
v 6.712963 12.620319 5.346152
v 6.908272 13.024878 -1.987139
v 4.303802 12.916477 -4.756136
v -6.831570 11.515043 1.247089
v -5.949757 11.406641 4.944782
v -3.345291 11.515043 7.713772
v 0.283951 11.811201 8.812117
v 0.674549 12.620319 -5.854475
v -3.007019 12.215759 -4.987864
v -5.754452 11.811201 -2.388513
v 7.822475 12.303780 1.672536
v 2.281193 11.625799 4.683501
v 4.007881 11.605394 7.881566
v 6.746910 12.008608 5.292253
v 6.946388 12.411819 -2.007698
v 0.536781 11.625799 1.447807
v 4.353371 12.303780 -4.762309
v -1.207619 11.625799 -1.787890
v -6.744926 10.907009 1.220934
v -5.868835 10.798969 4.901161
v -3.275829 10.907009 7.655774
v 0.339302 11.202181 8.746678
v 0.738239 12.008608 -5.853213
v -2.930328 11.605394 -4.988107
v -5.669369 11.202181 -2.398786
v -8.110523 0.241507 -6.943983
v -8.351292 0.241507 -6.764590
v -8.351292 0.672761 -6.764590
v -8.110516 0.672761 -6.943978
v -7.103420 7.767420 -3.113101
v -7.592304 7.705753 -1.610764
v -7.756660 8.819294 -1.611316
v -7.261845 8.896320 -3.182119
v -8.054482 9.293036 -3.861403
v -8.137260 9.275442 -3.598119
v -8.169521 9.472509 -3.596463
v -8.085072 9.491373 -3.872171
v 0.117504 6.717468 10.738653
v 2.596577 6.717468 5.607649
v -3.086540 6.717468 6.026214
v 2.838234 6.717468 8.888798
v -0.365810 6.717468 4.176358
v -2.844883 6.717468 9.307362
v -0.124153 6.717468 7.457506
vt 0.799314 0.080166
vt 0.797335 0.081366
vt 0.789497 0.086115
vt 0.153184 0.137326
vt 0.146524 0.137329
vt 0.146859 0.128446
vt 0.153525 0.126749
vt 0.137659 0.137332
vt 0.136636 0.127221
vt 0.580090 0.231109
vt 0.628984 0.237941
vt 0.629274 0.298200
vt 0.564658 0.295868
vt 0.680496 0.232240
vt 0.693895 0.297531
vt 0.628399 0.353547
vt 0.562385 0.350410
vt 0.498106 0.239578
vt 0.499353 0.291120
vt 0.762766 0.242889
vt 0.759355 0.294851
vt 0.694389 0.352303
vt 0.627472 0.417063
vt 0.556196 0.413053
vt 0.497832 0.186748
vt 0.584953 0.183828
vt 0.677139 0.184599
vt 0.764979 0.184883
vt 0.760619 0.346985
vt 0.698672 0.415050
vt 0.496112 0.342923
vt 0.487627 0.405011
vt 0.766756 0.409315
vt 0.175093 0.210915
vt 0.231688 0.223948
vt 0.227895 0.266713
vt 0.861701 0.075447
vt 0.279024 0.218511
vt 0.294202 0.272932
vt 0.224407 0.311491
vt 0.150947 0.304063
vt 0.086930 0.190718
vt 0.099165 0.270000
vt 0.363268 0.212510
vt 0.362555 0.278919
vt 0.292177 0.317245
vt 0.219332 0.370915
vt 0.146676 0.365594
vt 0.912697 0.107325
vt 0.895398 0.111572
vt 0.080017 0.165337
vt 0.177310 0.166319
vt 0.280813 0.174134
vt 0.369165 0.179721
vt 0.360721 0.324488
vt 0.289499 0.375835
vt 0.930907 0.140324
vt 0.926971 0.139542
vt 0.272864 0.167907
vt 0.271693 0.184020
vt 0.026271 0.168695
vt 0.026801 0.161397
vt 0.355233 0.384402
vt 0.927842 0.143969
vt 0.931195 0.143545
vt 0.016759 0.168003
vt 0.017290 0.160706
vt 0.411629 0.098612
vt 0.421931 0.099866
vt 0.421090 0.106767
vt 0.411080 0.108753
vt 0.405969 0.104888
vt 0.406415 0.097978
vt 0.453020 0.447992
vt 0.387989 0.443616
vt 0.389013 0.433149
vt 0.453518 0.437489
vt 0.323357 0.436292
vt 0.324622 0.425848
vt 0.518172 0.449794
vt 0.518145 0.439277
vt 0.583207 0.448625
vt 0.582938 0.438109
vt 0.907056 0.425352
vt 0.842463 0.430906
vt 0.841465 0.420441
vt 0.906162 0.414874
vt 0.777984 0.437670
vt 0.776882 0.427212
vt 0.971871 0.420868
vt 0.970901 0.410393
vt 0.713309 0.445533
vt 0.712601 0.435041
vt 0.787592 0.086519
vt 0.778030 0.081367
vt 0.783880 0.068944
vt 0.792946 0.067939
vt 0.780842 0.158842
vt 0.754352 0.131612
vt 0.920837 0.161019
vt 0.901075 0.163397
vt 0.915048 0.183697
vt 0.874084 0.188642
vt 0.778033 0.064507
vt 0.431507 0.182012
vt 0.430163 0.216376
vt 0.431278 0.285107
vt 0.523025 0.067336
vt 0.428930 0.333504
vt 0.580509 0.056364
vt 0.571093 0.075340
vt 0.420344 0.395601
vt 0.620810 0.099193
vt 0.616672 0.107469
vt 0.627843 0.102670
vt 0.626330 0.112372
vt 0.856048 0.188081
vt 0.855805 0.215005
vt 0.827279 0.292432
vt 0.903480 0.216751
vt 0.896615 0.293950
vt 0.827965 0.341675
vt 0.898492 0.332576
vt 0.834380 0.403712
vt 0.904303 0.395180
vt 0.956385 0.323197
vt 0.975935 0.382654
vt 0.264290 0.095858
vt 0.249393 0.137273
vt 0.192617 0.137324
vt 0.203172 0.119048
vt 0.044970 0.137295
vt 0.032005 0.106171
vt 0.085591 0.120566
vt 0.096254 0.137337
vt 0.481521 0.107144
vt 0.480259 0.117480
vt 0.507996 0.113091
vt 0.508024 0.147941
vt 0.344704 0.102413
vt 0.346819 0.090742
vt 0.702844 0.103101
vt 0.676265 0.147864
vt 0.666454 0.124656
vt 0.675937 0.105081
vt 0.648147 0.447563
vt 0.647894 0.437042
vt 0.258812 0.429078
vt 0.260058 0.418628
vt 0.194298 0.420906
vt 0.195682 0.410476
vt 0.543436 0.021566
vt 0.782205 0.054393
vt 0.895932 0.063647
vt 0.155627 0.266799
vt 0.301074 0.094110
vt 0.291237 0.039046
vt 0.349995 0.125958
vt 0.326002 0.133062
vt 0.359364 0.148058
vt 0.112134 0.811614
vt 0.289364 0.812198
vt 0.289301 0.914336
vt 0.187013 0.886812
vt 0.289364 0.708892
vt 0.084726 0.708892
vt 0.466468 0.811614
vt 0.391588 0.886812
vt 0.493876 0.708892
vt 0.112134 0.606170
vt 0.289364 0.605587
vt 0.466467 0.606170
vt 0.187014 0.530972
vt 0.289301 0.503448
vt 0.391588 0.530972
vt 0.226151 0.073590
vt 0.193908 0.100000
vt 0.214764 0.031344
vt 0.188506 0.093043
vt 0.409663 0.120200
vt 0.835725 0.143459
vt 0.624070 0.200010
vt 0.644967 0.146466
vt 0.619771 0.122756
vt 0.290361 0.953646
vt 0.168629 0.920828
vt 0.182962 0.893521
vt 0.289050 0.922114
vt 0.079516 0.831170
vt 0.105299 0.815404
vt 0.412092 0.920828
vt 0.395138 0.893521
vt 0.046898 0.708693
vt 0.076873 0.708694
vt 0.501205 0.831170
vt 0.472800 0.815404
vt 0.079515 0.586217
vt 0.105299 0.601983
vt 0.533823 0.708694
vt 0.501227 0.708694
vt 0.168629 0.496559
vt 0.182962 0.523866
vt 0.501205 0.586217
vt 0.472801 0.601983
vt 0.290360 0.463742
vt 0.289050 0.495273
vt 0.412091 0.496559
vt 0.395139 0.523866
vt 0.952453 0.094109
vt 0.940065 0.123463
vt 0.936544 0.144763
vt 0.838985 0.563993
vt 0.838985 0.492279
vt 0.901092 0.456421
vt 0.901092 0.528136
vt 0.963199 0.492279
vt 0.963199 0.563993
vt 0.901092 0.599850
vn 0.172426 0.171758 0.969932
vn -0.022191 0.281950 0.959173
vn -0.017477 0.182254 0.983096
vn -0.302716 0.415030 0.857970
vn 0.454140 0.300996 0.838546
vn 0.870283 0.259632 0.418568
vn 0.875791 0.106362 0.470827
vn 0.440135 0.169576 0.881774
vn 0.898057 0.209436 0.386821
vn 0.976834 0.157616 0.144748
vn 0.985005 0.000000 -0.172525
vn 0.753435 0.000000 -0.657522
vn 0.747907 0.000000 -0.663804
vn 0.985005 0.000000 -0.172525
vn 0.481148 0.000000 -0.876639
vn 0.481148 0.000000 -0.876639
vn 0.241690 0.294797 -0.924489
vn 0.122488 0.295841 -0.947351
vn 0.078651 0.147016 -0.986002
vn 0.436263 0.164402 -0.884673
vn -0.133597 0.273618 -0.952515
vn -0.395745 0.331007 -0.856633
vn -0.597463 0.000010 -0.801897
vn -0.597463 0.000010 -0.801897
vn -0.597463 0.000010 -0.801897
vn -0.597463 0.000010 -0.801897
vn -0.986998 0.137265 -0.083627
vn -0.982500 0.147109 -0.114249
vn -0.949370 0.302857 -0.083508
vn -0.838727 0.330553 -0.432748
vn 0.011463 0.013965 0.999837
vn -0.418333 0.103565 0.902370
vn 0.469941 -0.019571 0.882481
vn 0.817064 -0.054955 0.573923
vn 0.994390 -0.065085 -0.083385
vn 0.790418 0.441766 -0.424362
vn 0.877632 -0.055417 -0.476122
vn 0.507135 -0.075050 -0.858593
vn 0.054278 -0.041014 -0.997683
vn -0.433815 0.056013 -0.899259
vn -0.776911 0.173617 -0.605200
vn -0.975383 0.213387 -0.055630
vn -0.765507 0.531477 0.362672
vn -0.861409 0.239246 0.448036
vn 0.004191 -0.224042 0.974571
vn -0.491989 -0.233862 0.838604
vn 0.490796 -0.196126 0.848913
vn 0.807378 -0.133361 0.574766
vn 0.960156 0.005376 0.279415
vn 0.960156 0.005376 0.279415
vn 0.960156 0.005376 0.279415
vn 0.960156 0.005376 0.279415
vn 0.876189 -0.095729 -0.472365
vn 0.997693 -0.021688 -0.064330
vn 0.526627 -0.112542 -0.842614
vn 0.045698 -0.153160 -0.987144
vn -0.439294 -0.195836 -0.876738
vn -0.736048 -0.125164 -0.665258
vn -0.940284 -0.156429 -0.302316
vn -0.940284 -0.156429 -0.302316
vn -0.940285 -0.156429 -0.302316
vn -0.940285 -0.156429 -0.302316
vn -0.861078 -0.240155 0.448186
vn -0.978683 -0.199075 0.050481
vn 0.006061 -0.287086 0.957886
vn -0.479883 -0.308690 0.821233
vn 0.486011 -0.244371 0.839093
vn 0.844528 -0.186247 0.502081
vn 0.990819 -0.133018 0.024178
vn 0.874788 -0.111043 -0.471610
vn 0.524370 -0.133019 -0.841036
vn 0.044718 -0.186246 -0.981485
vn -0.437062 -0.241165 -0.866496
vn -0.792320 -0.265666 -0.549228
vn -0.954720 -0.296483 -0.024640
vn -0.840048 -0.318757 0.438992
vn -0.093815 0.994234 0.051940
vn -0.096030 0.993918 0.053902
vn -0.094875 0.993910 0.056042
vn -0.092703 0.994181 0.054871
vn -0.096920 0.993920 0.052251
vn -0.094291 0.994246 0.050833
vn -0.094953 0.994234 0.049827
vn -0.097810 0.993918 0.050599
vn -0.100025 0.993596 0.052561
vn -0.099549 0.993584 0.053668
vn -0.098886 0.993596 0.054674
vn -0.097046 0.993634 0.057213
vn -0.096791 0.994181 0.047287
vn -0.098964 0.993911 0.048459
vn -0.101135 0.993634 0.049629
vn -0.750062 0.641352 0.161474
vn -0.348590 0.887002 0.302840
vn -0.988800 0.084540 -0.122995
vn -0.993058 0.088939 -0.076981
vn 0.786687 -0.021446 0.616979
vn 0.726381 -0.018749 0.687036
vn -0.144749 0.915369 0.375696
vn 0.340265 0.938453 0.059370
vn 0.262896 0.949194 -0.172963
vn 0.648735 0.041651 0.759874
vn 0.717903 0.122542 0.685273
vn -0.088036 0.274287 -0.957610
vn -0.179231 0.237346 -0.954748
vn 0.124296 0.887873 -0.442982
vn 0.215228 0.974059 0.069905
vn 0.151363 0.985706 -0.073983
vn 0.516928 -0.087682 0.851527
vn 0.516928 -0.087682 0.851527
vn -0.340055 0.164517 -0.925903
vn -0.340055 0.164517 -0.925903
vn 0.009130 0.932177 -0.361888
vn -0.880230 0.000000 0.474547
vn -0.629031 0.000000 0.777380
vn -0.629031 0.000000 0.777380
vn -0.864235 0.000000 0.503088
vn -0.980861 0.000000 -0.194711
vn -0.980861 0.000000 -0.194711
vn 0.253017 0.000000 0.967462
vn 0.253017 0.000000 0.967462
vn -0.073746 0.992275 0.099759
vn 0.026196 0.961349 0.274084
vn -0.205547 0.967768 -0.145516
vn -0.669173 0.000000 -0.743107
vn -0.669173 0.000000 -0.743107
vn -0.862031 -0.003472 0.506843
vn -0.862031 -0.003472 0.506843
vn -0.193115 0.957347 -0.214927
vn -0.193115 0.957347 -0.214927
vn 0.315726 0.239792 -0.918050
vn 0.315726 0.239792 -0.918050
vn -0.057165 0.023740 -0.998082
vn -0.058930 0.024345 -0.997965
vn 0.469656 0.860466 0.197539
vn 0.230584 0.965099 0.124161
vn 0.637186 -0.072616 0.767282
vn 0.610144 -0.068381 0.789334
vn -0.041981 0.018534 -0.998947
vn -0.041981 0.018534 -0.998947
vn -0.156093 0.987741 -0.001863
vn -0.156093 0.987741 -0.001863
vn 0.298806 -0.021508 0.954071
vn 0.298806 -0.021508 0.954071
vn -0.258276 0.929865 -0.262001
vn -0.390377 0.910378 -0.137179
vn -0.390419 0.910370 -0.137110
vn -0.258276 0.929865 -0.262001
vn -0.442401 0.896028 0.037620
vn -0.442403 0.896023 0.037702
vn -0.400054 0.890753 0.215675
vn -0.274579 0.896029 0.348912
vn -0.274648 0.896024 0.348869
vn -0.400055 0.890753 0.215674
vn 0.261078 0.963443 0.060133
vn 0.218738 0.968632 -0.117925
vn 0.218738 0.968632 -0.117925
vn 0.261080 0.963448 0.060052
vn 0.093255 0.963443 -0.251158
vn -0.081385 0.949266 -0.303760
vn -0.081303 0.949274 -0.303758
vn 0.093325 0.963448 -0.251115
vn -0.099955 0.910378 0.401523
vn -0.100035 0.910370 0.401521
vn 0.076928 0.929865 0.359769
vn 0.076929 0.929865 0.359769
vn 0.209038 0.949266 0.234942
vn 0.209080 0.949274 0.234873
vn -0.479335 0.057197 -0.875766
vn -0.851425 -0.001669 -0.524474
vn -0.852832 -0.001968 -0.522181
vn -0.479336 0.057197 -0.875766
vn -0.998255 -0.050207 -0.031073
vn -0.998326 -0.050398 -0.028370
vn -0.878124 -0.069185 0.473405
vn -0.522696 -0.050212 0.851039
vn -0.524995 -0.050403 0.849612
vn -0.878122 -0.069185 0.473409
vn 0.989489 0.140110 0.035800
vn 0.870160 0.150845 -0.469113
vn 0.870159 0.150845 -0.469115
vn 0.989568 0.140218 0.033090
vn 0.513930 0.140101 -0.846314
vn 0.019438 0.107931 -0.993968
vn 0.022135 0.108148 -0.993888
vn 0.516239 0.140209 -0.844890
vn -0.029799 -0.001674 0.999555
vn -0.032490 -0.001974 0.999470
vn 0.468183 0.057188 0.881779
vn 0.468181 0.057188 0.881780
vn 0.841062 0.107929 0.530062
vn 0.842479 0.108146 0.527763
vn -0.998747 0.000000 0.050045
vn -0.998747 0.000000 0.050045
vn -0.998747 0.000000 0.050045
vn -0.998747 0.000000 0.050045
vn 0.000000 1.000000 0.000000
vn 0.000000 1.000000 0.000000
vn 0.000000 1.000000 0.000000
vn 0.000000 1.000000 0.000000
vn 0.681450 -0.000002 -0.731864
vn 0.681450 -0.000002 -0.731864
vn 0.681450 -0.000002 -0.731864
vn 0.681450 -0.000002 -0.731864
vn -0.953655 -0.125119 0.273654
vn -0.944344 -0.118669 0.306808
vn 0.261340 0.955222 0.138756
vn 0.199525 0.972232 0.122287
vn 0.468777 -0.009177 -0.883269
vn 0.525902 0.007131 -0.850515
vn -0.977193 -0.146728 0.153508
vn -0.977193 -0.146728 0.153508
vn 0.462816 0.865820 0.190151
vn 0.462816 0.865820 0.190151
vn 0.664158 0.049743 -0.745936
vn 0.664158 0.049743 -0.745936
vn 0.000000 1.000000 -0.000000
vn 0.000000 1.000000 0.000000
vn 0.000000 1.000000 0.000000
vn 0.000000 1.000000 -0.000000
vn 0.000000 1.000000 0.000000
vn 0.000000 1.000000 -0.000000
vn 0.000000 1.000000 -0.000000
s 1
g Tronco_03
usemtl lambert2SG
f 1/53/1 2/54/2 12/44/3 11/38/4
f 3/105/5 4/25/6 14/18/7 13/106/8
f 4/25/6 5/26/9 15/10/10 14/18/7
s 3
f 69/4/11 70/5/12 71/6/13 72/7/14
f 70/5/12 73/8/15 74/9/16 71/6/13
s 1
f 6/27/17 7/28/18 18/20/19 17/14/20
f 7/28/18 8/117/21 19/118/22 18/20/19
s off
f 120/96/23 121/104/24 122/153/25 123/97/26
s 1
f 9/51/27 10/52/28 21/34/29 20/42/30
f 11/38/4 12/44/3 24/45/31 23/39/32
f 12/44/3 13/106/8 25/107/33 24/45/31
f 13/106/8 14/18/7 26/19/34 25/107/33
f 14/18/7 15/10/10 27/13/35 26/19/34
f 15/10/10 16/11/36 28/12/37 27/13/35
f 16/11/36 17/14/20 29/15/38 28/12/37
f 17/14/20 18/20/19 30/21/39 29/15/38
f 18/20/19 19/118/22 31/119/40 30/21/39
f 19/118/22 20/120/30 32/121/41 31/119/40
f 20/42/30 21/34/29 33/155/42 32/43/41
f 21/34/29 22/35/43 34/36/44 33/155/42
f 22/35/43 11/38/4 23/39/32 34/36/44
f 23/39/32 24/45/31 36/55/45 35/46/46
f 24/45/31 25/107/33 37/109/47 36/55/45
f 25/107/33 26/19/34 38/31/48 37/109/47
s off
f 89/113/49 90/115/50 91/116/51 92/114/52
s 1
f 27/13/35 28/12/37 40/16/53 39/17/54
f 28/12/37 29/15/38 41/22/55 40/16/53
f 29/15/38 30/21/39 42/29/56 41/22/55
f 30/21/39 31/119/40 43/122/57 42/29/56
f 31/119/40 32/121/41 44/123/58 43/122/57
s off
f 128/64/59 129/58/60 130/57/61 131/65/62
s 1
f 33/155/42 34/36/44 46/40/63 45/41/64
f 34/36/44 23/39/32 35/46/46 46/40/63
f 35/46/46 36/55/45 48/63/65 47/56/66
f 36/55/45 37/109/47 49/112/67 48/63/65
f 37/109/47 38/31/48 50/32/68 49/112/67
f 38/31/48 39/17/54 51/24/69 50/32/68
f 39/17/54 40/16/53 52/23/70 51/24/69
f 40/16/53 41/22/55 53/30/71 52/23/70
f 41/22/55 42/29/56 54/33/72 53/30/71
f 42/29/56 43/122/57 55/124/73 54/33/72
f 43/122/57 44/123/58 56/125/74 55/124/73
f 44/123/58 45/126/64 57/127/75 56/125/74
f 45/41/64 46/40/63 58/47/76 57/48/75
f 46/40/63 35/46/46 47/56/66 58/47/76
s 6
f 105/161/77 106/162/78 107/163/79 108/164/80
f 110/165/81 109/166/82 111/170/83 112/171/84
f 110/165/81 112/171/84 113/172/85 114/169/86
f 106/162/78 115/167/87 116/168/88 107/163/79
f 112/171/84 111/170/83 117/173/89 118/174/90
f 113/172/85 112/171/84 118/174/90 119/175/91
f 110/165/81 106/162/78 105/161/77 109/166/82
f 110/165/81 114/169/86 115/167/87 106/162/78
s 1
f 22/156/43 21/157/29 61/140/92 60/158/93
f 21/34/29 10/52/28 59/59/94 61/60/95
f 1/138/1 11/139/4 63/137/96 62/136/97
f 11/159/4 22/156/43 60/158/93 63/160/98
f 16/176/36 15/128/10 66/131/99 65/177/100
f 15/128/10 5/129/9 64/130/101 66/131/102
f 6/132/17 17/133/20 68/134/103 67/135/104
f 17/178/20 16/176/36 65/177/100 68/179/105
f 65/177/100 66/131/99 72/7/106 71/6/107
f 66/131/102 64/130/101 69/4/108 72/7/109
f 67/135/104 68/134/103 74/9/110 73/8/111
f 68/179/105 65/177/100 71/6/107 74/9/112
s 7
f 75/68/113 76/69/114 77/70/115 78/71/116
f 75/68/113 78/71/116 79/72/117 80/73/118
s 1
f 62/136/97 63/137/96 77/70/119 76/69/120
f 63/160/98 60/158/93 78/71/121 77/180/122
f 60/158/93 61/140/92 79/72/123 78/71/121
f 61/140/95 59/141/94 80/73/124 79/72/125
f 9/51/27 20/42/30 83/61/126 82/62/127
f 20/181/30 19/98/22 84/94/128 83/1/129
f 19/98/22 8/99/21 81/95/130 84/94/131
f 27/142/35 39/143/54 87/144/132 86/145/133
f 39/143/54 38/182/48 88/183/134 87/144/135
f 38/108/48 26/152/34 85/110/136 88/111/137
f 86/145/133 87/144/132 91/116/138 90/115/139
f 87/144/135 88/183/134 92/184/140 91/116/141
f 88/111/137 85/110/136 89/113/142 92/114/143
s 8
f 49/185/144 50/186/145 95/187/146 94/188/147
f 50/186/145 51/189/148 93/190/149 95/187/146
f 52/193/150 53/197/151 97/198/152 96/194/153
f 57/203/154 58/199/155 99/200/156 98/204/157
f 47/195/158 48/191/159 101/192/160 100/196/161
f 48/191/159 49/185/144 94/188/147 101/192/160
f 53/197/151 54/201/162 102/202/163 97/198/152
f 54/201/162 55/205/164 103/206/165 102/202/163
f 55/205/164 56/207/166 104/208/167 103/206/165
f 56/207/166 57/203/154 98/204/157 104/208/167
f 51/189/148 52/193/150 96/194/153 93/190/149
f 58/199/155 47/195/158 100/196/161 99/200/156
s 11
f 94/146/168 95/82/169 108/83/170 107/147/171
f 95/82/169 93/80/172 105/81/173 108/83/170
f 96/74/174 97/75/175 111/76/176 109/77/177
f 98/84/178 99/85/179 114/86/180 113/87/181
f 100/88/182 101/92/183 116/93/184 115/89/185
f 101/92/183 94/146/168 107/147/171 116/93/184
f 97/75/175 102/78/186 117/79/187 111/76/176
f 102/78/186 103/148/188 118/149/189 117/79/187
f 103/148/188 104/150/190 119/151/191 118/149/189
f 104/90/190 98/84/178 113/87/181 119/91/191
f 93/80/172 96/74/174 109/77/177 105/81/173
f 99/85/179 100/88/182 115/89/185 114/86/180
s off
f 82/62/192 83/61/193 122/66/194 121/67/195
f 83/1/196 84/94/197 123/3/198 122/2/199
f 84/94/200 81/95/201 120/96/202 123/97/203
s 1
f 33/37/42 45/154/64 126/49/204 125/50/205
f 45/154/64 44/209/58 127/210/206 126/49/207
f 44/102/58 32/103/41 124/101/208 127/100/209
f 125/50/205 126/49/204 130/57/210 129/58/211
f 126/49/207 127/210/206 131/211/212 130/57/213
f 127/100/209 124/101/208 128/64/214 131/65/215
f 12/44/3 2/54/2 3/105/5 13/106/8
s 14
f 137/212/216 132/213/217 135/214/218 138/215/219
f 135/214/218 133/216/220 136/217/221 138/215/219
f 136/217/221 134/218/222 137/212/216 138/215/219
